<?xml version="1.0" encoding="UTF-8" standalone="no"?>
<!DOCTYPE svg PUBLIC "-//W3C//DTD SVG 1.1//EN"
 "http://www.w3.org/Graphics/SVG/1.1/DTD/svg11.dtd">
<!-- Generated by graphviz version 2.43.0 (0)
 -->
<!-- Title: Graphical Class Hierarchy Pages: 1 -->
<svg width="243pt" height="218pt"
 viewBox="0.00 0.00 243.00 218.00" xmlns="http://www.w3.org/2000/svg" xmlns:xlink="http://www.w3.org/1999/xlink">
<g id="graph0" class="graph" transform="scale(1 1) rotate(0) translate(4 214)">
<title>Graphical Class Hierarchy</title>
<polygon fill="white" stroke="transparent" points="-4,4 -4,-214 239,-214 239,4 -4,4"/>
<!-- Node0 -->
<g id="node1" class="node">
<title>Node0</title>
<g id="a_node1"><a xlink:href="structfms__diag__buffer__mod_1_1fmsdiagbuffer__class.html" target="_top" xlink:title="Object that holds buffered data and other diagnostics Abstract to ensure use through its extensions(b...">
<polygon fill="white" stroke="black" points="0,-95.5 0,-114.5 115,-114.5 115,-95.5 0,-95.5"/>
<text text-anchor="middle" x="57.5" y="-102.5" font-family="Helvetica,sans-Serif" font-size="10.00">fmsdiagbuffer_class</text>
</a>
</g>
</g>
<!-- Node1 -->
<g id="node2" class="node">
<title>Node1</title>
<g id="a_node2"><a xlink:href="structfms__diag__buffer__mod_1_1buffer0d__type.html" target="_top" xlink:title="Scalar buffer type to extend fmsDiagBufferContainer_type.">
<polygon fill="white" stroke="black" points="151,-190.5 151,-209.5 235,-209.5 235,-190.5 151,-190.5"/>
<text text-anchor="middle" x="193" y="-197.5" font-family="Helvetica,sans-Serif" font-size="10.00">buffer0d_type</text>
</a>
</g>
</g>
<!-- Node0&#45;&gt;Node1 -->
<g id="edge1" class="edge">
<title>Node0&#45;&gt;Node1</title>
<path fill="none" stroke="midnightblue" d="M75.74,-121.45C93.59,-137.91 122.76,-163.26 151,-181 156.45,-184.42 162.61,-187.6 168.47,-190.34"/>
<polygon fill="midnightblue" stroke="midnightblue" points="78.08,-118.85 68.39,-114.58 73.3,-123.96 78.08,-118.85"/>
</g>
<!-- Node2 -->
<g id="node3" class="node">
<title>Node2</title>
<g id="a_node3"><a xlink:href="structfms__diag__buffer__mod_1_1buffer1d__type.html" target="_top" xlink:title="1D buffer type to extend fmsDiagBuffer_class">
<polygon fill="white" stroke="black" points="151,-152.5 151,-171.5 235,-171.5 235,-152.5 151,-152.5"/>
<text text-anchor="middle" x="193" y="-159.5" font-family="Helvetica,sans-Serif" font-size="10.00">buffer1d_type</text>
</a>
</g>
</g>
<!-- Node0&#45;&gt;Node2 -->
<g id="edge2" class="edge">
<title>Node0&#45;&gt;Node2</title>
<path fill="none" stroke="midnightblue" d="M90.07,-118.48C114.53,-128.92 147.8,-143.13 169.58,-152.43"/>
<polygon fill="midnightblue" stroke="midnightblue" points="91.42,-115.25 80.84,-114.54 88.67,-121.69 91.42,-115.25"/>
</g>
<!-- Node3 -->
<g id="node4" class="node">
<title>Node3</title>
<g id="a_node4"><a xlink:href="structfms__diag__buffer__mod_1_1buffer2d__type.html" target="_top" xlink:title="2D buffer type to extend fmsDiagBuffer_class">
<polygon fill="white" stroke="black" points="151,-114.5 151,-133.5 235,-133.5 235,-114.5 151,-114.5"/>
<text text-anchor="middle" x="193" y="-121.5" font-family="Helvetica,sans-Serif" font-size="10.00">buffer2d_type</text>
</a>
</g>
</g>
<!-- Node0&#45;&gt;Node3 -->
<g id="edge3" class="edge">
<title>Node0&#45;&gt;Node3</title>
<path fill="none" stroke="midnightblue" d="M125.26,-114.5C133.93,-115.74 142.6,-116.97 150.69,-118.12"/>
<polygon fill="midnightblue" stroke="midnightblue" points="125.51,-111 115.12,-113.06 124.52,-117.93 125.51,-111"/>
</g>
<!-- Node4 -->
<g id="node5" class="node">
<title>Node4</title>
<g id="a_node5"><a xlink:href="structfms__diag__buffer__mod_1_1buffer3d__type.html" target="_top" xlink:title="3D buffer type to extend fmsDiagBuffer_class">
<polygon fill="white" stroke="black" points="151,-76.5 151,-95.5 235,-95.5 235,-76.5 151,-76.5"/>
<text text-anchor="middle" x="193" y="-83.5" font-family="Helvetica,sans-Serif" font-size="10.00">buffer3d_type</text>
</a>
</g>
</g>
<!-- Node0&#45;&gt;Node4 -->
<g id="edge4" class="edge">
<title>Node0&#45;&gt;Node4</title>
<path fill="none" stroke="midnightblue" d="M125.26,-95.5C133.93,-94.26 142.6,-93.03 150.69,-91.88"/>
<polygon fill="midnightblue" stroke="midnightblue" points="124.52,-92.07 115.12,-96.94 125.51,-99 124.52,-92.07"/>
</g>
<!-- Node5 -->
<g id="node6" class="node">
<title>Node5</title>
<g id="a_node6"><a xlink:href="structfms__diag__buffer__mod_1_1buffer4d__type.html" target="_top" xlink:title="4D buffer type to extend fmsDiagBuffer_class">
<polygon fill="white" stroke="black" points="151,-38.5 151,-57.5 235,-57.5 235,-38.5 151,-38.5"/>
<text text-anchor="middle" x="193" y="-45.5" font-family="Helvetica,sans-Serif" font-size="10.00">buffer4d_type</text>
</a>
</g>
</g>
<!-- Node0&#45;&gt;Node5 -->
<g id="edge5" class="edge">
<title>Node0&#45;&gt;Node5</title>
<path fill="none" stroke="midnightblue" d="M90.07,-91.52C114.53,-81.08 147.8,-66.87 169.58,-57.57"/>
<polygon fill="midnightblue" stroke="midnightblue" points="88.67,-88.31 80.84,-95.46 91.42,-94.75 88.67,-88.31"/>
</g>
<!-- Node6 -->
<g id="node7" class="node">
<title>Node6</title>
<g id="a_node7"><a xlink:href="structfms__diag__buffer__mod_1_1buffer5d__type.html" target="_top" xlink:title="5D buffer type to extend fmsDiagBuffer_class">
<polygon fill="white" stroke="black" points="151,-0.5 151,-19.5 235,-19.5 235,-0.5 151,-0.5"/>
<text text-anchor="middle" x="193" y="-7.5" font-family="Helvetica,sans-Serif" font-size="10.00">buffer5d_type</text>
</a>
</g>
</g>
<!-- Node0&#45;&gt;Node6 -->
<g id="edge6" class="edge">
<title>Node0&#45;&gt;Node6</title>
<path fill="none" stroke="midnightblue" d="M75.74,-88.55C93.59,-72.09 122.76,-46.74 151,-29 156.45,-25.58 162.61,-22.4 168.47,-19.66"/>
<polygon fill="midnightblue" stroke="midnightblue" points="73.3,-86.04 68.39,-95.42 78.08,-91.15 73.3,-86.04"/>
</g>
</g>
</svg>
