<?xml version="1.0" encoding="UTF-8" standalone="no"?>
<!DOCTYPE svg PUBLIC "-//W3C//DTD SVG 1.1//EN"
 "http://www.w3.org/Graphics/SVG/1.1/DTD/svg11.dtd">
<!-- Generated by graphviz version 2.43.0 (0)
 -->
<!-- Title: Graphical Class Hierarchy Pages: 1 -->
<svg width="285pt" height="104pt"
 viewBox="0.00 0.00 285.00 104.00" xmlns="http://www.w3.org/2000/svg" xmlns:xlink="http://www.w3.org/1999/xlink">
<g id="graph0" class="graph" transform="scale(1 1) rotate(0) translate(4 100)">
<title>Graphical Class Hierarchy</title>
<polygon fill="white" stroke="transparent" points="-4,4 -4,-100 281,-100 281,4 -4,4"/>
<!-- Node0 -->
<g id="node1" class="node">
<title>Node0</title>
<g id="a_node1"><a xlink:href="structfms__diag__axis__object__mod_1_1fmsdiagaxis__type.html" target="_top" xlink:title="Type to hold the diagnostic axis description.">
<polygon fill="white" stroke="black" points="0,-38.5 0,-57.5 104,-57.5 104,-38.5 0,-38.5"/>
<text text-anchor="middle" x="52" y="-45.5" font-family="Helvetica,sans-Serif" font-size="10.00">fmsdiagaxis_type</text>
</a>
</g>
</g>
<!-- Node1 -->
<g id="node2" class="node">
<title>Node1</title>
<g id="a_node2"><a xlink:href="structfms__diag__axis__object__mod_1_1fmsdiagdiurnalaxis__type.html" target="_top" xlink:title="Type to hold the diurnal axis.">
<polygon fill="white" stroke="black" points="140,-76.5 140,-95.5 277,-95.5 277,-76.5 140,-76.5"/>
<text text-anchor="middle" x="208.5" y="-83.5" font-family="Helvetica,sans-Serif" font-size="10.00">fmsdiagdiurnalaxis_type</text>
</a>
</g>
</g>
<!-- Node0&#45;&gt;Node1 -->
<g id="edge1" class="edge">
<title>Node0&#45;&gt;Node1</title>
<path fill="none" stroke="midnightblue" d="M101.95,-60.04C123.54,-65.35 148.54,-71.5 168.79,-76.48"/>
<polygon fill="midnightblue" stroke="midnightblue" points="102.53,-56.58 91.99,-57.59 100.86,-63.38 102.53,-56.58"/>
</g>
<!-- Node2 -->
<g id="node3" class="node">
<title>Node2</title>
<g id="a_node3"><a xlink:href="structfms__diag__axis__object__mod_1_1fmsdiagfullaxis__type.html" target="_top" xlink:title="Type to hold the diagnostic axis description.">
<polygon fill="white" stroke="black" points="149,-38.5 149,-57.5 268,-57.5 268,-38.5 149,-38.5"/>
<text text-anchor="middle" x="208.5" y="-45.5" font-family="Helvetica,sans-Serif" font-size="10.00">fmsdiagfullaxis_type</text>
</a>
</g>
</g>
<!-- Node0&#45;&gt;Node2 -->
<g id="edge2" class="edge">
<title>Node0&#45;&gt;Node2</title>
<path fill="none" stroke="midnightblue" d="M114.29,-48C125.65,-48 137.49,-48 148.77,-48"/>
<polygon fill="midnightblue" stroke="midnightblue" points="114.02,-44.5 104.02,-48 114.02,-51.5 114.02,-44.5"/>
</g>
<!-- Node3 -->
<g id="node4" class="node">
<title>Node3</title>
<g id="a_node4"><a xlink:href="structfms__diag__axis__object__mod_1_1fmsdiagsubaxis__type.html" target="_top" xlink:title="Type to hold the subaxis.">
<polygon fill="white" stroke="black" points="148,-0.5 148,-19.5 269,-19.5 269,-0.5 148,-0.5"/>
<text text-anchor="middle" x="208.5" y="-7.5" font-family="Helvetica,sans-Serif" font-size="10.00">fmsdiagsubaxis_type</text>
</a>
</g>
</g>
<!-- Node0&#45;&gt;Node3 -->
<g id="edge3" class="edge">
<title>Node0&#45;&gt;Node3</title>
<path fill="none" stroke="midnightblue" d="M101.95,-35.96C123.54,-30.65 148.54,-24.5 168.79,-19.52"/>
<polygon fill="midnightblue" stroke="midnightblue" points="100.86,-32.62 91.99,-38.41 102.53,-39.42 100.86,-32.62"/>
</g>
</g>
</svg>
