<?xml version="1.0" encoding="UTF-8" standalone="no"?>
<!DOCTYPE svg PUBLIC "-//W3C//DTD SVG 1.1//EN"
 "http://www.w3.org/Graphics/SVG/1.1/DTD/svg11.dtd">
<!-- Generated by graphviz version 2.43.0 (0)
 -->
<!-- Title: Graphical Class Hierarchy Pages: 1 -->
<svg width="222pt" height="104pt"
 viewBox="0.00 0.00 222.00 104.00" xmlns="http://www.w3.org/2000/svg" xmlns:xlink="http://www.w3.org/1999/xlink">
<g id="graph0" class="graph" transform="scale(1 1) rotate(0) translate(4 100)">
<title>Graphical Class Hierarchy</title>
<polygon fill="white" stroke="transparent" points="-4,4 -4,-100 218,-100 218,4 -4,4"/>
<!-- Node0 -->
<g id="node1" class="node">
<title>Node0</title>
<g id="a_node1"><a xlink:href="structfms__diag__axis__object__mod_1_1diagdomain__t.html" target="_top" xlink:title="Type to hold the domain info for an axis This type was created to avoid having to send in &quot;Domain&quot;,...">
<polygon fill="white" stroke="black" points="0,-38.5 0,-57.5 83,-57.5 83,-38.5 0,-38.5"/>
<text text-anchor="middle" x="41.5" y="-45.5" font-family="Helvetica,sans-Serif" font-size="10.00">diagdomain_t</text>
</a>
</g>
</g>
<!-- Node1 -->
<g id="node2" class="node">
<title>Node1</title>
<g id="a_node2"><a xlink:href="structfms__diag__axis__object__mod_1_1diagdomain1d__t.html" target="_top" xlink:title="Type to hold the 1d domain.">
<polygon fill="white" stroke="black" points="119,-76.5 119,-95.5 214,-95.5 214,-76.5 119,-76.5"/>
<text text-anchor="middle" x="166.5" y="-83.5" font-family="Helvetica,sans-Serif" font-size="10.00">diagdomain1d_t</text>
</a>
</g>
</g>
<!-- Node0&#45;&gt;Node1 -->
<g id="edge1" class="edge">
<title>Node0&#45;&gt;Node1</title>
<path fill="none" stroke="midnightblue" d="M83.54,-60.68C100.16,-65.81 119.03,-71.64 134.47,-76.41"/>
<polygon fill="midnightblue" stroke="midnightblue" points="84.13,-57.2 73.54,-57.59 82.06,-63.88 84.13,-57.2"/>
</g>
<!-- Node2 -->
<g id="node3" class="node">
<title>Node2</title>
<g id="a_node3"><a xlink:href="structfms__diag__axis__object__mod_1_1diagdomain2d__t.html" target="_top" xlink:title="Type to hold the 2d domain.">
<polygon fill="white" stroke="black" points="119,-38.5 119,-57.5 214,-57.5 214,-38.5 119,-38.5"/>
<text text-anchor="middle" x="166.5" y="-45.5" font-family="Helvetica,sans-Serif" font-size="10.00">diagdomain2d_t</text>
</a>
</g>
</g>
<!-- Node0&#45;&gt;Node2 -->
<g id="edge2" class="edge">
<title>Node0&#45;&gt;Node2</title>
<path fill="none" stroke="midnightblue" d="M93.3,-48C101.8,-48 110.58,-48 118.96,-48"/>
<polygon fill="midnightblue" stroke="midnightblue" points="93.12,-44.5 83.12,-48 93.12,-51.5 93.12,-44.5"/>
</g>
<!-- Node3 -->
<g id="node4" class="node">
<title>Node3</title>
<g id="a_node4"><a xlink:href="structfms__diag__axis__object__mod_1_1diagdomainug__t.html" target="_top" xlink:title="Type to hold the unstructured domain.">
<polygon fill="white" stroke="black" points="119,-0.5 119,-19.5 214,-19.5 214,-0.5 119,-0.5"/>
<text text-anchor="middle" x="166.5" y="-7.5" font-family="Helvetica,sans-Serif" font-size="10.00">diagdomainug_t</text>
</a>
</g>
</g>
<!-- Node0&#45;&gt;Node3 -->
<g id="edge3" class="edge">
<title>Node0&#45;&gt;Node3</title>
<path fill="none" stroke="midnightblue" d="M83.54,-35.32C100.16,-30.19 119.03,-24.36 134.47,-19.59"/>
<polygon fill="midnightblue" stroke="midnightblue" points="82.06,-32.12 73.54,-38.41 84.13,-38.8 82.06,-32.12"/>
</g>
</g>
</svg>
