<?xml version="1.0" encoding="UTF-8" standalone="no"?>
<!DOCTYPE svg PUBLIC "-//W3C//DTD SVG 1.1//EN"
 "http://www.w3.org/Graphics/SVG/1.1/DTD/svg11.dtd">
<!-- Generated by graphviz version 2.43.0 (0)
 -->
<!-- Title: fmsdiagsubaxis_type Pages: 1 -->
<!--zoomable 192 -->
<svg id="main" version="1.1" xmlns="http://www.w3.org/2000/svg" xmlns:xlink="http://www.w3.org/1999/xlink" xml:space="preserve" onload="init(evt)">
<style type="text/css"><![CDATA[
.edge:hover path { stroke: red; }
.edge:hover polygon { stroke: red; fill: red; }
]]></style>
<script type="text/javascript"><![CDATA[
var edges = document.getElementsByTagName('g');
if (edges && edges.length) {
  for (var i=0;i<edges.length;i++) {
    if (edges[i].id.substr(0,4)=='edge') {
      edges[i].setAttribute('class','edge');
    }
  }
}
]]></script>
        <defs>
                <circle id="rim" cx="0" cy="0" r="7"/>
                <circle id="rim2" cx="0" cy="0" r="3.5"/>
                <g id="zoomPlus">
                        <use xlink:href="#rim" fill="#404040">
                                <set attributeName="fill" to="#808080" begin="zoomplus.mouseover" end="zoomplus.mouseout"/>
                        </use>
                        <path d="M-4,0h8M0,-4v8" fill="none" stroke="white" stroke-width="1.5" pointer-events="none"/>
                </g>
                <g id="zoomMin">
                        <use xlink:href="#rim" fill="#404040">
                                <set attributeName="fill" to="#808080" begin="zoomminus.mouseover" end="zoomminus.mouseout"/>
                        </use>
                        <path d="M-4,0h8" fill="none" stroke="white" stroke-width="1.5" pointer-events="none"/>
                </g>
                <g id="dirArrow">
                        <path fill="none" stroke="white" stroke-width="1.5" d="M0,-3.0v7 M-2.5,-0.5L0,-3.0L2.5,-0.5"/>
                </g>
               <g id="resetDef">
                       <use xlink:href="#rim2" fill="#404040">
                               <set attributeName="fill" to="#808080" begin="reset.mouseover" end="reset.mouseout"/>
                       </use>
               </g>
        </defs>

<script type="text/javascript">
var viewWidth = 523;
var viewHeight = 192;
var sectionId = 'dynsection-0';
</script>
<script xlink:href="svgpan.js"/>
<svg id="graph" class="graph">
<g id="viewport">
<title>fmsdiagsubaxis_type</title>
<polygon fill="white" stroke="transparent" points="-4,4 -4,-188 519,-188 519,4 -4,4"/>
<!-- Node1 -->
<g id="node1" class="node">
<title>Node1</title>
<g id="a_node1"><a xlink:title="Type to hold the subaxis.">
<polygon fill="#bfbfbf" stroke="black" points="394,-88.5 394,-107.5 515,-107.5 515,-88.5 394,-88.5"/>
<text text-anchor="middle" x="454.5" y="-95.5" font-family="Helvetica,sans-Serif" font-size="10.00">fmsdiagsubaxis_type</text>
</a>
</g>
</g>
<!-- Node2 -->
<g id="node2" class="node">
<title>Node2</title>
<g id="a_node2"><a xlink:href="structfms__diag__axis__object__mod_1_1fmsdiagaxis__type.html" target="_top" xlink:title="Type to hold the diagnostic axis description.">
<polygon fill="white" stroke="black" points="152.5,-110.5 152.5,-129.5 256.5,-129.5 256.5,-110.5 152.5,-110.5"/>
<text text-anchor="middle" x="204.5" y="-117.5" font-family="Helvetica,sans-Serif" font-size="10.00">fmsdiagaxis_type</text>
</a>
</g>
</g>
<!-- Node2&#45;&gt;Node1 -->
<g id="edge1" class="edge">
<title>Node2&#45;&gt;Node1</title>
<path fill="none" stroke="midnightblue" d="M266.69,-114.57C305.43,-111.14 355.29,-106.71 393.75,-103.3"/>
<polygon fill="midnightblue" stroke="midnightblue" points="266.24,-111.1 256.59,-115.47 266.86,-118.07 266.24,-111.1"/>
</g>
<!-- Node3 -->
<g id="node3" class="node">
<title>Node3</title>
<g id="a_node3"><a xlink:title=" ">
<polygon fill="white" stroke="#bfbfbf" points="0,-133.5 0,-152.5 51,-152.5 51,-133.5 0,-133.5"/>
<text text-anchor="middle" x="25.5" y="-140.5" font-family="Helvetica,sans-Serif" font-size="10.00">integer</text>
</a>
</g>
</g>
<!-- Node3&#45;&gt;Node1 -->
<g id="edge5" class="edge">
<title>Node3&#45;&gt;Node1</title>
<path fill="none" stroke="#9a32cd" stroke-dasharray="5,2" d="M61.17,-150.96C63.81,-151.38 66.44,-151.73 69,-152 85.8,-153.76 90.12,-152.62 107,-152 227.22,-147.59 259.19,-150.77 376,-122 392.55,-117.92 410.77,-112.34 425.38,-107.58"/>
<polygon fill="#9a32cd" stroke="#9a32cd" points="61.55,-147.47 51.08,-149.11 60.29,-154.36 61.55,-147.47"/>
<text text-anchor="middle" x="204.5" y="-176" font-family="Helvetica,sans-Serif" font-size="10.00"> ending_index</text>
<text text-anchor="middle" x="204.5" y="-165" font-family="Helvetica,sans-Serif" font-size="10.00">parent_axis_id</text>
<text text-anchor="middle" x="204.5" y="-154" font-family="Helvetica,sans-Serif" font-size="10.00">starting_index</text>
</g>
<!-- Node3&#45;&gt;Node2 -->
<g id="edge2" class="edge">
<title>Node3&#45;&gt;Node2</title>
<path fill="none" stroke="#9a32cd" stroke-dasharray="5,2" d="M61.22,-138.49C87.14,-135.12 122.98,-130.46 152.2,-126.67"/>
<polygon fill="#9a32cd" stroke="#9a32cd" points="60.58,-135.04 51.11,-139.8 61.48,-141.98 60.58,-135.04"/>
<text text-anchor="middle" x="88" y="-140" font-family="Helvetica,sans-Serif" font-size="10.00"> axis_id</text>
</g>
<!-- Node4 -->
<g id="node4" class="node">
<title>Node4</title>
<g id="a_node4"><a xlink:title=" ">
<polygon fill="white" stroke="#bfbfbf" points="125,-61 125,-91 284,-91 284,-61 125,-61"/>
<text text-anchor="start" x="133" y="-79" font-family="Helvetica,sans-Serif" font-size="10.00">character(len=:), allocatable,</text>
<text text-anchor="middle" x="204.5" y="-68" font-family="Helvetica,sans-Serif" font-size="10.00"> private</text>
</a>
</g>
</g>
<!-- Node4&#45;&gt;Node1 -->
<g id="edge3" class="edge">
<title>Node4&#45;&gt;Node1</title>
<path fill="none" stroke="#9a32cd" stroke-dasharray="5,2" d="M294.02,-82.91C320.41,-85.07 349.38,-87.53 376,-90 381.79,-90.54 387.82,-91.12 393.85,-91.72"/>
<polygon fill="#9a32cd" stroke="#9a32cd" points="294.3,-79.43 284.05,-82.1 293.73,-86.4 294.3,-79.43"/>
<text text-anchor="middle" x="339" y="-93" font-family="Helvetica,sans-Serif" font-size="10.00"> subaxis_name</text>
</g>
<!-- Node5 -->
<g id="node5" class="node">
<title>Node5</title>
<g id="a_node5"><a xlink:title=" ">
<polygon fill="white" stroke="#bfbfbf" points="132.5,-0.5 132.5,-41.5 276.5,-41.5 276.5,-0.5 132.5,-0.5"/>
<text text-anchor="start" x="140.5" y="-29.5" font-family="Helvetica,sans-Serif" font-size="10.00">real(kind=r4_kind),</text>
<text text-anchor="start" x="140.5" y="-18.5" font-family="Helvetica,sans-Serif" font-size="10.00"> dimension(:), allocatable,</text>
<text text-anchor="middle" x="204.5" y="-7.5" font-family="Helvetica,sans-Serif" font-size="10.00"> private</text>
</a>
</g>
</g>
<!-- Node5&#45;&gt;Node1 -->
<g id="edge4" class="edge">
<title>Node5&#45;&gt;Node1</title>
<path fill="none" stroke="#9a32cd" stroke-dasharray="5,2" d="M286.79,-41.62C315.2,-49.3 347.18,-58.48 376,-68 394.63,-74.16 415.34,-82.24 430.66,-88.46"/>
<polygon fill="#9a32cd" stroke="#9a32cd" points="287.47,-38.18 276.9,-38.97 285.66,-44.94 287.47,-38.18"/>
<text text-anchor="middle" x="339" y="-71" font-family="Helvetica,sans-Serif" font-size="10.00"> zbounds</text>
</g>
</g>
</svg>
        <g id="navigator" transform="translate(0 0)" fill="#404254">
                <rect fill="#f2f5e9" fill-opacity="0.5" stroke="#606060" stroke-width=".5" x="0" y="0" width="60" height="60"/>
                <use id="zoomplus" xlink:href="#zoomPlus" x="17" y="9" onmousedown="handleZoom(evt,'in')"/>
                <use id="zoomminus" xlink:href="#zoomMin" x="42" y="9" onmousedown="handleZoom(evt,'out')"/>
                <use id="reset" xlink:href="#resetDef" x="30" y="36" onmousedown="handleReset()"/>
                <g id="arrowUp" xlink:href="#dirArrow" transform="translate(30 24)" onmousedown="handlePan(0,-1)">
                  <use xlink:href="#rim" fill="#404040">
                        <set attributeName="fill" to="#808080" begin="arrowUp.mouseover" end="arrowUp.mouseout"/>
                  </use>
                  <path fill="none" stroke="white" stroke-width="1.5" d="M0,-3.0v7 M-2.5,-0.5L0,-3.0L2.5,-0.5"/>
                </g>
                <g id="arrowRight" xlink:href="#dirArrow" transform="rotate(90) translate(36 -43)" onmousedown="handlePan(1,0)">
                  <use xlink:href="#rim" fill="#404040">
                        <set attributeName="fill" to="#808080" begin="arrowRight.mouseover" end="arrowRight.mouseout"/>
                  </use>
                  <path fill="none" stroke="white" stroke-width="1.5" d="M0,-3.0v7 M-2.5,-0.5L0,-3.0L2.5,-0.5"/>
                </g>
                <g id="arrowDown" xlink:href="#dirArrow" transform="rotate(180) translate(-30 -48)" onmousedown="handlePan(0,1)">
                  <use xlink:href="#rim" fill="#404040">
                        <set attributeName="fill" to="#808080" begin="arrowDown.mouseover" end="arrowDown.mouseout"/>
                  </use>
                  <path fill="none" stroke="white" stroke-width="1.5" d="M0,-3.0v7 M-2.5,-0.5L0,-3.0L2.5,-0.5"/>
                </g>
                <g id="arrowLeft" xlink:href="#dirArrow" transform="rotate(270) translate(-36 17)" onmousedown="handlePan(-1,0)">
                  <use xlink:href="#rim" fill="#404040">
                        <set attributeName="fill" to="#808080" begin="arrowLeft.mouseover" end="arrowLeft.mouseout"/>
                  </use>
                  <path fill="none" stroke="white" stroke-width="1.5" d="M0,-3.0v7 M-2.5,-0.5L0,-3.0L2.5,-0.5"/>
                </g>
        </g>
        <svg viewBox="0 0 15 15" width="100%" height="30px" preserveAspectRatio="xMaxYMin meet">
         <g id="arrow_out" transform="scale(0.3 0.3)">
          <a xlink:href="structfms__diag__axis__object__mod_1_1fmsdiagsubaxis__type__coll__graph_org.svg" target="_base">
           <rect id="button" ry="5" rx="5" y="6" x="6" height="38" width="38"
                fill="#f2f5e9" fill-opacity="0.5" stroke="#606060" stroke-width="1.0"/>
           <path id="arrow"
             d="M 11.500037,31.436501 C 11.940474,20.09759 22.043105,11.32322 32.158766,21.979434 L 37.068811,17.246167 C 37.068811,17.246167 37.088388,32 37.088388,32 L 22.160133,31.978069 C 22.160133,31.978069 26.997745,27.140456 26.997745,27.140456 C 18.528582,18.264221 13.291696,25.230495 11.500037,31.436501 z"
             style="fill:#404040;"/>
          </a>
         </g>
        </svg>
</svg>
