<?xml version="1.0" encoding="UTF-8" standalone="no"?>
<!DOCTYPE svg PUBLIC "-//W3C//DTD SVG 1.1//EN"
 "http://www.w3.org/Graphics/SVG/1.1/DTD/svg11.dtd">
<!-- Generated by graphviz version 2.43.0 (0)
 -->
<!-- Title: buffer3d_type Pages: 1 -->
<svg width="403pt" height="217pt"
 viewBox="0.00 0.00 403.00 217.00" xmlns="http://www.w3.org/2000/svg" xmlns:xlink="http://www.w3.org/1999/xlink">
<g id="graph0" class="graph" transform="scale(1 1) rotate(0) translate(4 213)">
<title>buffer3d_type</title>
<polygon fill="white" stroke="transparent" points="-4,4 -4,-213 399,-213 399,4 -4,4"/>
<!-- Node1 -->
<g id="node1" class="node">
<title>Node1</title>
<g id="a_node1"><a xlink:title="3D buffer type to extend fmsDiagBuffer_class">
<polygon fill="#bfbfbf" stroke="black" points="231.5,-0.5 231.5,-19.5 315.5,-19.5 315.5,-0.5 231.5,-0.5"/>
<text text-anchor="middle" x="273.5" y="-7.5" font-family="Helvetica,sans-Serif" font-size="10.00">buffer3d_type</text>
</a>
</g>
</g>
<!-- Node2 -->
<g id="node2" class="node">
<title>Node2</title>
<g id="a_node2"><a xlink:href="structfms__diag__buffer__mod_1_1fmsdiagbuffer__class.html" target="_top" xlink:title="Object that holds buffered data and other diagnostics Abstract to ensure use through its extensions(b...">
<polygon fill="white" stroke="black" points="151,-84 151,-103 266,-103 266,-84 151,-84"/>
<text text-anchor="middle" x="208.5" y="-91" font-family="Helvetica,sans-Serif" font-size="10.00">fmsdiagbuffer_class</text>
</a>
</g>
</g>
<!-- Node2&#45;&gt;Node1 -->
<g id="edge1" class="edge">
<title>Node2&#45;&gt;Node1</title>
<path fill="none" stroke="midnightblue" d="M221.84,-75.77C235.43,-58.73 255.97,-32.98 266.59,-19.66"/>
<polygon fill="midnightblue" stroke="midnightblue" points="218.96,-73.78 215.46,-83.78 224.43,-78.14 218.96,-73.78"/>
</g>
<!-- Node3 -->
<g id="node3" class="node">
<title>Node3</title>
<g id="a_node3"><a xlink:title=" ">
<polygon fill="white" stroke="#bfbfbf" points="0,-184 0,-203 129,-203 129,-184 0,-184"/>
<text text-anchor="middle" x="64.5" y="-191" font-family="Helvetica,sans-Serif" font-size="10.00">integer(i4_kind), public</text>
</a>
</g>
</g>
<!-- Node3&#45;&gt;Node2 -->
<g id="edge2" class="edge">
<title>Node3&#45;&gt;Node2</title>
<path fill="none" stroke="#9a32cd" stroke-dasharray="5,2" d="M81.86,-176.72C97.74,-162.71 122.24,-142.18 145.5,-127 159.62,-117.79 176.67,-109.13 189.47,-103.07"/>
<polygon fill="#9a32cd" stroke="#9a32cd" points="79.11,-174.48 73.98,-183.75 83.77,-179.7 79.11,-174.48"/>
<text text-anchor="middle" x="175" y="-141" font-family="Helvetica,sans-Serif" font-size="10.00"> buffer_type</text>
</g>
<!-- Node4 -->
<g id="node4" class="node">
<title>Node4</title>
<g id="a_node4"><a xlink:title=" ">
<polygon fill="white" stroke="#bfbfbf" points="147.5,-178.5 147.5,-208.5 269.5,-208.5 269.5,-178.5 147.5,-178.5"/>
<text text-anchor="start" x="155.5" y="-196.5" font-family="Helvetica,sans-Serif" font-size="10.00">class(*), dimension</text>
<text text-anchor="middle" x="208.5" y="-185.5" font-family="Helvetica,sans-Serif" font-size="10.00">(:), allocatable, public</text>
</a>
</g>
</g>
<!-- Node4&#45;&gt;Node2 -->
<g id="edge3" class="edge">
<title>Node4&#45;&gt;Node2</title>
<path fill="none" stroke="#9a32cd" stroke-dasharray="5,2" d="M208.5,-168.25C208.5,-147.03 208.5,-117.4 208.5,-103.01"/>
<polygon fill="#9a32cd" stroke="#9a32cd" points="205,-168.46 208.5,-178.46 212,-168.46 205,-168.46"/>
<text text-anchor="middle" x="232.5" y="-141" font-family="Helvetica,sans-Serif" font-size="10.00"> count_0d</text>
</g>
<!-- Node5 -->
<g id="node5" class="node">
<title>Node5</title>
<g id="a_node5"><a xlink:title=" ">
<polygon fill="white" stroke="#bfbfbf" points="288,-184 288,-203 339,-203 339,-184 288,-184"/>
<text text-anchor="middle" x="313.5" y="-191" font-family="Helvetica,sans-Serif" font-size="10.00">integer</text>
</a>
</g>
</g>
<!-- Node5&#45;&gt;Node2 -->
<g id="edge4" class="edge">
<title>Node5&#45;&gt;Node2</title>
<path fill="none" stroke="#9a32cd" stroke-dasharray="5,2" d="M302.08,-175.39C292.16,-161.34 276.85,-141.47 260.5,-127 249.82,-117.54 236.07,-109.08 225.4,-103.17"/>
<polygon fill="#9a32cd" stroke="#9a32cd" points="299.22,-177.42 307.77,-183.67 304.99,-173.45 299.22,-177.42"/>
<text text-anchor="middle" x="327" y="-152" font-family="Helvetica,sans-Serif" font-size="10.00"> buffer_dims</text>
<text text-anchor="middle" x="327" y="-141" font-family="Helvetica,sans-Serif" font-size="10.00">buffer_id</text>
<text text-anchor="middle" x="327" y="-130" font-family="Helvetica,sans-Serif" font-size="10.00">num_elements</text>
</g>
<!-- Node6 -->
<g id="node6" class="node">
<title>Node6</title>
<g id="a_node6"><a xlink:title=" ">
<polygon fill="white" stroke="#bfbfbf" points="284,-78.5 284,-108.5 395,-108.5 395,-78.5 284,-78.5"/>
<text text-anchor="start" x="292" y="-96.5" font-family="Helvetica,sans-Serif" font-size="10.00">class(*), dimension</text>
<text text-anchor="middle" x="339.5" y="-85.5" font-family="Helvetica,sans-Serif" font-size="10.00">(:,:,:), allocatable</text>
</a>
</g>
</g>
<!-- Node6&#45;&gt;Node1 -->
<g id="edge5" class="edge">
<title>Node6&#45;&gt;Node1</title>
<path fill="none" stroke="#9a32cd" stroke-dasharray="5,2" d="M321.37,-70.11C307.82,-53.38 290.04,-31.42 280.42,-19.54"/>
<polygon fill="#9a32cd" stroke="#9a32cd" points="318.99,-72.74 328,-78.3 324.43,-68.33 318.99,-72.74"/>
<text text-anchor="middle" x="330" y="-52" font-family="Helvetica,sans-Serif" font-size="10.00"> buffer</text>
<text text-anchor="middle" x="330" y="-41" font-family="Helvetica,sans-Serif" font-size="10.00">counter</text>
</g>
</g>
</svg>
