<?xml version="1.0" encoding="UTF-8" standalone="no"?>
<!DOCTYPE svg PUBLIC "-//W3C//DTD SVG 1.1//EN"
 "http://www.w3.org/Graphics/SVG/1.1/DTD/svg11.dtd">
<!-- Generated by graphviz version 2.43.0 (0)
 -->
<!-- Title: fmsdiagobjectcontainer_t Pages: 1 -->
<svg width="214pt" height="242pt"
 viewBox="0.00 0.00 214.00 242.00" xmlns="http://www.w3.org/2000/svg" xmlns:xlink="http://www.w3.org/1999/xlink">
<g id="graph0" class="graph" transform="scale(1 1) rotate(0) translate(4 238)">
<title>fmsdiagobjectcontainer_t</title>
<polygon fill="white" stroke="transparent" points="-4,4 -4,-238 210,-238 210,4 -4,4"/>
<!-- Node1 -->
<g id="node1" class="node">
<title>Node1</title>
<g id="a_node1"><a xlink:title="A container of fmsDiagField_type instances providing insert, remove , find/search,...">
<polygon fill="#bfbfbf" stroke="black" points="43,-0.5 43,-19.5 184,-19.5 184,-0.5 43,-0.5"/>
<text text-anchor="middle" x="113.5" y="-7.5" font-family="Helvetica,sans-Serif" font-size="10.00">fmsdiagobjectcontainer_t</text>
</a>
</g>
</g>
<!-- Node2 -->
<g id="node2" class="node">
<title>Node2</title>
<g id="a_node2"><a xlink:href="group__fms__diag__dlinked__list__mod.html#structfms__diag__dlinked__list__mod_1_1fmsdllist__t" target="_top" xlink:title="The doubly&#45;linked list type. Besides the member functions, see the associated iterator class ( FmsDll...">
<polygon fill="white" stroke="black" points="79.5,-67.5 79.5,-86.5 147.5,-86.5 147.5,-67.5 79.5,-67.5"/>
<text text-anchor="middle" x="113.5" y="-74.5" font-family="Helvetica,sans-Serif" font-size="10.00">fmsdllist_t</text>
</a>
</g>
</g>
<!-- Node2&#45;&gt;Node1 -->
<g id="edge1" class="edge">
<title>Node2&#45;&gt;Node1</title>
<path fill="none" stroke="#9a32cd" stroke-dasharray="5,2" d="M113.5,-57.04C113.5,-44.67 113.5,-29.12 113.5,-19.63"/>
<polygon fill="#9a32cd" stroke="#9a32cd" points="110,-57.23 113.5,-67.23 117,-57.23 110,-57.23"/>
<text text-anchor="middle" x="150.5" y="-41" font-family="Helvetica,sans-Serif" font-size="10.00"> the_linked_list</text>
</g>
<!-- Node3 -->
<g id="node3" class="node">
<title>Node3</title>
<g id="a_node3"><a xlink:href="structfms__diag__dlinked__list__mod_1_1fmsdllistnode__t.html" target="_top" xlink:title="The doubly&#45;linked list node type.">
<polygon fill="white" stroke="black" points="1.5,-146.5 1.5,-165.5 93.5,-165.5 93.5,-146.5 1.5,-146.5"/>
<text text-anchor="middle" x="47.5" y="-153.5" font-family="Helvetica,sans-Serif" font-size="10.00">fmsdllistnode_t</text>
</a>
</g>
</g>
<!-- Node3&#45;&gt;Node2 -->
<g id="edge2" class="edge">
<title>Node3&#45;&gt;Node2</title>
<path fill="none" stroke="#9a32cd" stroke-dasharray="5,2" d="M61.59,-138.56C75.16,-122.73 95.17,-99.39 105.95,-86.81"/>
<polygon fill="#9a32cd" stroke="#9a32cd" points="58.67,-136.6 54.82,-146.47 63.98,-141.15 58.67,-136.6"/>
<text text-anchor="middle" x="104.5" y="-119" font-family="Helvetica,sans-Serif" font-size="10.00"> head</text>
<text text-anchor="middle" x="104.5" y="-108" font-family="Helvetica,sans-Serif" font-size="10.00">tail</text>
</g>
<!-- Node3&#45;&gt;Node3 -->
<g id="edge4" class="edge">
<title>Node3&#45;&gt;Node3</title>
<path fill="none" stroke="#9a32cd" stroke-dasharray="5,2" d="M103.77,-160.95C108.53,-159.89 111.5,-158.24 111.5,-156 111.5,-152.41 103.91,-150.34 93.52,-149.78"/>
<polygon fill="#9a32cd" stroke="#9a32cd" points="103.02,-157.52 93.52,-162.22 103.88,-164.46 103.02,-157.52"/>
<text text-anchor="middle" x="124" y="-159" font-family="Helvetica,sans-Serif" font-size="10.00"> next</text>
<text text-anchor="middle" x="124" y="-148" font-family="Helvetica,sans-Serif" font-size="10.00">prev</text>
</g>
<!-- Node4 -->
<g id="node4" class="node">
<title>Node4</title>
<g id="a_node4"><a xlink:title=" ">
<polygon fill="white" stroke="#bfbfbf" points="0,-214.5 0,-233.5 95,-233.5 95,-214.5 0,-214.5"/>
<text text-anchor="middle" x="47.5" y="-221.5" font-family="Helvetica,sans-Serif" font-size="10.00">class(*), pointer</text>
</a>
</g>
</g>
<!-- Node4&#45;&gt;Node3 -->
<g id="edge3" class="edge">
<title>Node4&#45;&gt;Node3</title>
<path fill="none" stroke="#9a32cd" stroke-dasharray="5,2" d="M47.5,-204.04C47.5,-191.47 47.5,-175.56 47.5,-165.84"/>
<polygon fill="#9a32cd" stroke="#9a32cd" points="44,-204.37 47.5,-214.37 51,-204.37 44,-204.37"/>
<text text-anchor="middle" x="69.5" y="-188" font-family="Helvetica,sans-Serif" font-size="10.00"> data_ptr</text>
</g>
<!-- Node5 -->
<g id="node5" class="node">
<title>Node5</title>
<g id="a_node5"><a xlink:title=" ">
<polygon fill="white" stroke="#bfbfbf" points="155,-146.5 155,-165.5 206,-165.5 206,-146.5 155,-146.5"/>
<text text-anchor="middle" x="180.5" y="-153.5" font-family="Helvetica,sans-Serif" font-size="10.00">integer</text>
</a>
</g>
</g>
<!-- Node5&#45;&gt;Node2 -->
<g id="edge5" class="edge">
<title>Node5&#45;&gt;Node2</title>
<path fill="none" stroke="#9a32cd" stroke-dasharray="5,2" d="M166.19,-138.56C152.42,-122.73 132.11,-99.39 121.17,-86.81"/>
<polygon fill="#9a32cd" stroke="#9a32cd" points="163.87,-141.22 173.07,-146.47 169.15,-136.62 163.87,-141.22"/>
<text text-anchor="middle" x="176.5" y="-113.5" font-family="Helvetica,sans-Serif" font-size="10.00"> the_size</text>
</g>
</g>
</svg>
