<?xml version="1.0" encoding="UTF-8" standalone="no"?>
<!DOCTYPE svg PUBLIC "-//W3C//DTD SVG 1.1//EN"
 "http://www.w3.org/Graphics/SVG/1.1/DTD/svg11.dtd">
<!-- Generated by graphviz version 2.43.0 (0)
 -->
<!-- Title: fmsdiagsubaxis_type Pages: 1 -->
<svg width="523pt" height="192pt"
 viewBox="0.00 0.00 523.00 192.00" xmlns="http://www.w3.org/2000/svg" xmlns:xlink="http://www.w3.org/1999/xlink">
<g id="graph0" class="graph" transform="scale(1 1) rotate(0) translate(4 188)">
<title>fmsdiagsubaxis_type</title>
<polygon fill="white" stroke="transparent" points="-4,4 -4,-188 519,-188 519,4 -4,4"/>
<!-- Node1 -->
<g id="node1" class="node">
<title>Node1</title>
<g id="a_node1"><a xlink:title="Type to hold the subaxis.">
<polygon fill="#bfbfbf" stroke="black" points="394,-88.5 394,-107.5 515,-107.5 515,-88.5 394,-88.5"/>
<text text-anchor="middle" x="454.5" y="-95.5" font-family="Helvetica,sans-Serif" font-size="10.00">fmsdiagsubaxis_type</text>
</a>
</g>
</g>
<!-- Node2 -->
<g id="node2" class="node">
<title>Node2</title>
<g id="a_node2"><a xlink:href="structfms__diag__axis__object__mod_1_1fmsdiagaxis__type.html" target="_top" xlink:title="Type to hold the diagnostic axis description.">
<polygon fill="white" stroke="black" points="152.5,-110.5 152.5,-129.5 256.5,-129.5 256.5,-110.5 152.5,-110.5"/>
<text text-anchor="middle" x="204.5" y="-117.5" font-family="Helvetica,sans-Serif" font-size="10.00">fmsdiagaxis_type</text>
</a>
</g>
</g>
<!-- Node2&#45;&gt;Node1 -->
<g id="edge1" class="edge">
<title>Node2&#45;&gt;Node1</title>
<path fill="none" stroke="midnightblue" d="M266.69,-114.57C305.43,-111.14 355.29,-106.71 393.75,-103.3"/>
<polygon fill="midnightblue" stroke="midnightblue" points="266.24,-111.1 256.59,-115.47 266.86,-118.07 266.24,-111.1"/>
</g>
<!-- Node3 -->
<g id="node3" class="node">
<title>Node3</title>
<g id="a_node3"><a xlink:title=" ">
<polygon fill="white" stroke="#bfbfbf" points="0,-133.5 0,-152.5 51,-152.5 51,-133.5 0,-133.5"/>
<text text-anchor="middle" x="25.5" y="-140.5" font-family="Helvetica,sans-Serif" font-size="10.00">integer</text>
</a>
</g>
</g>
<!-- Node3&#45;&gt;Node1 -->
<g id="edge5" class="edge">
<title>Node3&#45;&gt;Node1</title>
<path fill="none" stroke="#9a32cd" stroke-dasharray="5,2" d="M61.17,-150.96C63.81,-151.38 66.44,-151.73 69,-152 85.8,-153.76 90.12,-152.62 107,-152 227.22,-147.59 259.19,-150.77 376,-122 392.55,-117.92 410.77,-112.34 425.38,-107.58"/>
<polygon fill="#9a32cd" stroke="#9a32cd" points="61.55,-147.47 51.08,-149.11 60.29,-154.36 61.55,-147.47"/>
<text text-anchor="middle" x="204.5" y="-176" font-family="Helvetica,sans-Serif" font-size="10.00"> ending_index</text>
<text text-anchor="middle" x="204.5" y="-165" font-family="Helvetica,sans-Serif" font-size="10.00">parent_axis_id</text>
<text text-anchor="middle" x="204.5" y="-154" font-family="Helvetica,sans-Serif" font-size="10.00">starting_index</text>
</g>
<!-- Node3&#45;&gt;Node2 -->
<g id="edge2" class="edge">
<title>Node3&#45;&gt;Node2</title>
<path fill="none" stroke="#9a32cd" stroke-dasharray="5,2" d="M61.22,-138.49C87.14,-135.12 122.98,-130.46 152.2,-126.67"/>
<polygon fill="#9a32cd" stroke="#9a32cd" points="60.58,-135.04 51.11,-139.8 61.48,-141.98 60.58,-135.04"/>
<text text-anchor="middle" x="88" y="-140" font-family="Helvetica,sans-Serif" font-size="10.00"> axis_id</text>
</g>
<!-- Node4 -->
<g id="node4" class="node">
<title>Node4</title>
<g id="a_node4"><a xlink:title=" ">
<polygon fill="white" stroke="#bfbfbf" points="125,-61 125,-91 284,-91 284,-61 125,-61"/>
<text text-anchor="start" x="133" y="-79" font-family="Helvetica,sans-Serif" font-size="10.00">character(len=:), allocatable,</text>
<text text-anchor="middle" x="204.5" y="-68" font-family="Helvetica,sans-Serif" font-size="10.00"> private</text>
</a>
</g>
</g>
<!-- Node4&#45;&gt;Node1 -->
<g id="edge3" class="edge">
<title>Node4&#45;&gt;Node1</title>
<path fill="none" stroke="#9a32cd" stroke-dasharray="5,2" d="M294.02,-82.91C320.41,-85.07 349.38,-87.53 376,-90 381.79,-90.54 387.82,-91.12 393.85,-91.72"/>
<polygon fill="#9a32cd" stroke="#9a32cd" points="294.3,-79.43 284.05,-82.1 293.73,-86.4 294.3,-79.43"/>
<text text-anchor="middle" x="339" y="-93" font-family="Helvetica,sans-Serif" font-size="10.00"> subaxis_name</text>
</g>
<!-- Node5 -->
<g id="node5" class="node">
<title>Node5</title>
<g id="a_node5"><a xlink:title=" ">
<polygon fill="white" stroke="#bfbfbf" points="132.5,-0.5 132.5,-41.5 276.5,-41.5 276.5,-0.5 132.5,-0.5"/>
<text text-anchor="start" x="140.5" y="-29.5" font-family="Helvetica,sans-Serif" font-size="10.00">real(kind=r4_kind),</text>
<text text-anchor="start" x="140.5" y="-18.5" font-family="Helvetica,sans-Serif" font-size="10.00"> dimension(:), allocatable,</text>
<text text-anchor="middle" x="204.5" y="-7.5" font-family="Helvetica,sans-Serif" font-size="10.00"> private</text>
</a>
</g>
</g>
<!-- Node5&#45;&gt;Node1 -->
<g id="edge4" class="edge">
<title>Node5&#45;&gt;Node1</title>
<path fill="none" stroke="#9a32cd" stroke-dasharray="5,2" d="M286.79,-41.62C315.2,-49.3 347.18,-58.48 376,-68 394.63,-74.16 415.34,-82.24 430.66,-88.46"/>
<polygon fill="#9a32cd" stroke="#9a32cd" points="287.47,-38.18 276.9,-38.97 285.66,-44.94 287.47,-38.18"/>
<text text-anchor="middle" x="339" y="-71" font-family="Helvetica,sans-Serif" font-size="10.00"> zbounds</text>
</g>
</g>
</svg>
