<?xml version="1.0" encoding="UTF-8" standalone="no"?>
<!DOCTYPE svg PUBLIC "-//W3C//DTD SVG 1.1//EN"
 "http://www.w3.org/Graphics/SVG/1.1/DTD/svg11.dtd">
<!-- Generated by graphviz version 2.43.0 (0)
 -->
<!-- Title: diagdomain1d_t Pages: 1 -->
<svg width="258pt" height="319pt"
 viewBox="0.00 0.00 257.50 319.00" xmlns="http://www.w3.org/2000/svg" xmlns:xlink="http://www.w3.org/1999/xlink">
<g id="graph0" class="graph" transform="scale(1 1) rotate(0) translate(4 315)">
<title>diagdomain1d_t</title>
<polygon fill="white" stroke="transparent" points="-4,4 -4,-315 253.5,-315 253.5,4 -4,4"/>
<!-- Node1 -->
<g id="node1" class="node">
<title>Node1</title>
<g id="a_node1"><a xlink:title="Type to hold the 1d domain.">
<polygon fill="#bfbfbf" stroke="black" points="10,-0.5 10,-19.5 105,-19.5 105,-0.5 10,-0.5"/>
<text text-anchor="middle" x="57.5" y="-7.5" font-family="Helvetica,sans-Serif" font-size="10.00">diagdomain1d_t</text>
</a>
</g>
</g>
<!-- Node2 -->
<g id="node2" class="node">
<title>Node2</title>
<g id="a_node2"><a xlink:href="structfms__diag__axis__object__mod_1_1diagdomain__t.html" target="_top" xlink:title="Type to hold the domain info for an axis This type was created to avoid having to send in &quot;Domain&quot;,...">
<polygon fill="white" stroke="black" points="0,-67.5 0,-86.5 83,-86.5 83,-67.5 0,-67.5"/>
<text text-anchor="middle" x="41.5" y="-74.5" font-family="Helvetica,sans-Serif" font-size="10.00">diagdomain_t</text>
</a>
</g>
</g>
<!-- Node2&#45;&gt;Node1 -->
<g id="edge1" class="edge">
<title>Node2&#45;&gt;Node1</title>
<path fill="none" stroke="midnightblue" d="M46.07,-57.41C49.13,-44.99 53.02,-29.22 55.38,-19.63"/>
<polygon fill="midnightblue" stroke="midnightblue" points="42.65,-56.69 43.66,-67.23 49.45,-58.36 42.65,-56.69"/>
</g>
<!-- Node3 -->
<g id="node3" class="node">
<title>Node3</title>
<g id="a_node3"><a xlink:href="group__mpp__domains__mod.html#structmpp__domains__mod_1_1domain1d" target="_top" xlink:title="One dimensional domain used to manage shared data access between pes.">
<polygon fill="white" stroke="black" points="101,-67.5 101,-86.5 166,-86.5 166,-67.5 101,-67.5"/>
<text text-anchor="middle" x="133.5" y="-74.5" font-family="Helvetica,sans-Serif" font-size="10.00">domain1d</text>
</a>
</g>
</g>
<!-- Node3&#45;&gt;Node1 -->
<g id="edge2" class="edge">
<title>Node3&#45;&gt;Node1</title>
<path fill="none" stroke="#9a32cd" stroke-dasharray="5,2" d="M115.63,-60.71C100.65,-47.91 79.82,-30.09 67.59,-19.63"/>
<polygon fill="#9a32cd" stroke="#9a32cd" points="113.38,-63.39 123.25,-67.23 117.93,-58.07 113.38,-63.39"/>
<text text-anchor="middle" x="120.5" y="-41" font-family="Helvetica,sans-Serif" font-size="10.00"> domain</text>
</g>
<!-- Node3&#45;&gt;Node3 -->
<g id="edge4" class="edge">
<title>Node3&#45;&gt;Node3</title>
<path fill="none" stroke="#9a32cd" stroke-dasharray="5,2" d="M176.14,-82.07C180.91,-81.11 184,-79.42 184,-77 184,-73.12 176.1,-71.13 166.04,-71.01"/>
<polygon fill="#9a32cd" stroke="#9a32cd" points="175.68,-78.59 166.04,-82.99 176.32,-85.56 175.68,-78.59"/>
<text text-anchor="middle" x="193.5" y="-74.5" font-family="Helvetica,sans-Serif" font-size="10.00"> list</text>
</g>
<!-- Node4 -->
<g id="node4" class="node">
<title>Node4</title>
<g id="a_node4"><a xlink:title=" ">
<polygon fill="white" stroke="#bfbfbf" points="37,-291.5 37,-310.5 86,-310.5 86,-291.5 37,-291.5"/>
<text text-anchor="middle" x="61.5" y="-298.5" font-family="Helvetica,sans-Serif" font-size="10.00">logical</text>
</a>
</g>
</g>
<!-- Node4&#45;&gt;Node3 -->
<g id="edge3" class="edge">
<title>Node4&#45;&gt;Node3</title>
<path fill="none" stroke="#9a32cd" stroke-dasharray="5,2" d="M52.69,-282.07C41.09,-255.78 23.96,-205.72 40.5,-167 56.48,-129.6 96.74,-100.39 118.69,-86.63"/>
<polygon fill="#9a32cd" stroke="#9a32cd" points="49.55,-283.6 56.93,-291.19 55.9,-280.65 49.55,-283.6"/>
<text text-anchor="middle" x="56" y="-186.5" font-family="Helvetica,sans-Serif" font-size="10.00"> cyclic</text>
</g>
<!-- Node5 -->
<g id="node5" class="node">
<title>Node5</title>
<g id="a_node5"><a xlink:href="group__mpp__domains__mod.html#structmpp__domains__mod_1_1domain__axis__spec" target="_top" xlink:title="Used to specify index limits along an axis of a domain.">
<polygon fill="white" stroke="black" points="80,-179.5 80,-198.5 187,-198.5 187,-179.5 80,-179.5"/>
<text text-anchor="middle" x="133.5" y="-186.5" font-family="Helvetica,sans-Serif" font-size="10.00">domain_axis_spec</text>
</a>
</g>
</g>
<!-- Node4&#45;&gt;Node5 -->
<g id="edge6" class="edge">
<title>Node4&#45;&gt;Node5</title>
<path fill="none" stroke="#9a32cd" stroke-dasharray="5,2" d="M67.29,-281.48C72.5,-266.5 81.07,-245.31 92.5,-229 100.84,-217.09 113.24,-205.92 122.22,-198.61"/>
<polygon fill="#9a32cd" stroke="#9a32cd" points="63.92,-280.53 64.11,-291.12 70.57,-282.72 63.92,-280.53"/>
<text text-anchor="middle" x="116" y="-248.5" font-family="Helvetica,sans-Serif" font-size="10.00"> is_global</text>
</g>
<!-- Node5&#45;&gt;Node3 -->
<g id="edge5" class="edge">
<title>Node5&#45;&gt;Node3</title>
<path fill="none" stroke="#9a32cd" stroke-dasharray="5,2" d="M133.5,-169.35C133.5,-145.25 133.5,-104.31 133.5,-86.59"/>
<polygon fill="#9a32cd" stroke="#9a32cd" points="130,-169.37 133.5,-179.37 137,-169.37 130,-169.37"/>
<text text-anchor="middle" x="156.5" y="-141" font-family="Helvetica,sans-Serif" font-size="10.00"> compute</text>
<text text-anchor="middle" x="156.5" y="-130" font-family="Helvetica,sans-Serif" font-size="10.00">data</text>
<text text-anchor="middle" x="156.5" y="-119" font-family="Helvetica,sans-Serif" font-size="10.00">global</text>
<text text-anchor="middle" x="156.5" y="-108" font-family="Helvetica,sans-Serif" font-size="10.00">memory</text>
</g>
<!-- Node6 -->
<g id="node6" class="node">
<title>Node6</title>
<g id="a_node6"><a xlink:title=" ">
<polygon fill="white" stroke="#bfbfbf" points="160,-291.5 160,-310.5 211,-310.5 211,-291.5 160,-291.5"/>
<text text-anchor="middle" x="185.5" y="-298.5" font-family="Helvetica,sans-Serif" font-size="10.00">integer</text>
</a>
</g>
</g>
<!-- Node6&#45;&gt;Node3 -->
<g id="edge8" class="edge">
<title>Node6&#45;&gt;Node3</title>
<path fill="none" stroke="#9a32cd" stroke-dasharray="5,2" d="M203.02,-283.96C205.67,-280.62 208.01,-276.91 209.5,-273 226.86,-227.35 194.8,-120.14 183.5,-105 177.36,-96.78 167.96,-90.78 158.96,-86.56"/>
<polygon fill="#9a32cd" stroke="#9a32cd" points="200.33,-281.71 196.11,-291.43 205.47,-286.47 200.33,-281.71"/>
<text text-anchor="middle" x="231" y="-203" font-family="Helvetica,sans-Serif" font-size="10.00"> goffset</text>
<text text-anchor="middle" x="231" y="-192" font-family="Helvetica,sans-Serif" font-size="10.00">loffset</text>
<text text-anchor="middle" x="231" y="-181" font-family="Helvetica,sans-Serif" font-size="10.00">pe</text>
<text text-anchor="middle" x="231" y="-170" font-family="Helvetica,sans-Serif" font-size="10.00">pos</text>
</g>
<!-- Node6&#45;&gt;Node5 -->
<g id="edge7" class="edge">
<title>Node6&#45;&gt;Node5</title>
<path fill="none" stroke="#9a32cd" stroke-dasharray="5,2" d="M169.86,-283.55C167.17,-280.22 164.58,-276.62 162.5,-273 148.07,-247.84 139.08,-214.31 135.41,-198.69"/>
<polygon fill="#9a32cd" stroke="#9a32cd" points="167.28,-285.92 176.49,-291.15 172.55,-281.32 167.28,-285.92"/>
<text text-anchor="middle" x="186" y="-265" font-family="Helvetica,sans-Serif" font-size="10.00"> begin</text>
<text text-anchor="middle" x="186" y="-254" font-family="Helvetica,sans-Serif" font-size="10.00">end</text>
<text text-anchor="middle" x="186" y="-243" font-family="Helvetica,sans-Serif" font-size="10.00">max_size</text>
<text text-anchor="middle" x="186" y="-232" font-family="Helvetica,sans-Serif" font-size="10.00">size</text>
</g>
</g>
</svg>
