<?xml version="1.0" encoding="UTF-8" standalone="no"?>
<!DOCTYPE svg PUBLIC "-//W3C//DTD SVG 1.1//EN"
 "http://www.w3.org/Graphics/SVG/1.1/DTD/svg11.dtd">
<!-- Generated by graphviz version 2.43.0 (0)
 -->
<!-- Title: fmsdiagfield_type Pages: 1 -->
<svg width="652pt" height="738pt"
 viewBox="0.00 0.00 652.00 737.50" xmlns="http://www.w3.org/2000/svg" xmlns:xlink="http://www.w3.org/1999/xlink">
<g id="graph0" class="graph" transform="scale(1 1) rotate(0) translate(4 733.5)">
<title>fmsdiagfield_type</title>
<polygon fill="white" stroke="transparent" points="-4,4 -4,-733.5 648,-733.5 648,4 -4,4"/>
<!-- Node1 -->
<g id="node1" class="node">
<title>Node1</title>
<g id="a_node1"><a xlink:title="Object that holds all variable information.">
<polygon fill="#bfbfbf" stroke="black" points="540,-231 540,-250 644,-250 644,-231 540,-231"/>
<text text-anchor="middle" x="592" y="-238" font-family="Helvetica,sans-Serif" font-size="10.00">fmsdiagfield_type</text>
</a>
</g>
</g>
<!-- Node2 -->
<g id="node2" class="node">
<title>Node2</title>
<g id="a_node2"><a xlink:title=" ">
<polygon fill="white" stroke="#bfbfbf" points="306.5,-642 306.5,-661 355.5,-661 355.5,-642 306.5,-642"/>
<text text-anchor="middle" x="331" y="-649" font-family="Helvetica,sans-Serif" font-size="10.00">logical</text>
</a>
</g>
</g>
<!-- Node2&#45;&gt;Node1 -->
<g id="edge1" class="edge">
<title>Node2&#45;&gt;Node1</title>
<path fill="none" stroke="#9a32cd" stroke-dasharray="5,2" d="M365.43,-645.25C408.76,-635.29 483.33,-611.49 522,-560.5 560.89,-509.22 584.98,-298.18 590.01,-250.23"/>
<polygon fill="#9a32cd" stroke="#9a32cd" points="364.67,-641.83 355.65,-647.38 366.16,-648.67 364.67,-641.83"/>
<text text-anchor="middle" x="467.5" y="-721.5" font-family="Helvetica,sans-Serif" font-size="10.00"> data_buffer_allocated</text>
<text text-anchor="middle" x="467.5" y="-710.5" font-family="Helvetica,sans-Serif" font-size="10.00">do_not_log</text>
<text text-anchor="middle" x="467.5" y="-699.5" font-family="Helvetica,sans-Serif" font-size="10.00">local</text>
<text text-anchor="middle" x="467.5" y="-688.5" font-family="Helvetica,sans-Serif" font-size="10.00">mask_variant</text>
<text text-anchor="start" x="413" y="-677.5" font-family="Helvetica,sans-Serif" font-size="10.00">math_needs_to_be</text>
<text text-anchor="middle" x="467.5" y="-666.5" font-family="Helvetica,sans-Serif" font-size="10.00">_done</text>
<text text-anchor="middle" x="467.5" y="-655.5" font-family="Helvetica,sans-Serif" font-size="10.00">registered</text>
<text text-anchor="middle" x="467.5" y="-644.5" font-family="Helvetica,sans-Serif" font-size="10.00">scalar</text>
<text text-anchor="middle" x="467.5" y="-633.5" font-family="Helvetica,sans-Serif" font-size="10.00">static</text>
</g>
<!-- Node3 -->
<g id="node3" class="node">
<title>Node3</title>
<g id="a_node3"><a xlink:title=" ">
<polygon fill="white" stroke="#bfbfbf" points="0,-497.5 0,-527.5 159,-527.5 159,-497.5 0,-497.5"/>
<text text-anchor="start" x="8" y="-515.5" font-family="Helvetica,sans-Serif" font-size="10.00">character(len=:), allocatable,</text>
<text text-anchor="middle" x="79.5" y="-504.5" font-family="Helvetica,sans-Serif" font-size="10.00"> private</text>
</a>
</g>
</g>
<!-- Node3&#45;&gt;Node1 -->
<g id="edge2" class="edge">
<title>Node3&#45;&gt;Node1</title>
<path fill="none" stroke="#9a32cd" stroke-dasharray="5,2" d="M145.07,-529.57C176.59,-535.52 214.97,-539.21 249,-532.5 377.67,-507.13 430.35,-514.31 522,-420.5 571.58,-369.75 586.36,-279.61 589.98,-250.13"/>
<polygon fill="#9a32cd" stroke="#9a32cd" points="145.58,-526.1 135.09,-527.57 144.21,-532.97 145.58,-526.1"/>
<text text-anchor="middle" x="331" y="-597.5" font-family="Helvetica,sans-Serif" font-size="10.00"> interp_method</text>
<text text-anchor="middle" x="331" y="-586.5" font-family="Helvetica,sans-Serif" font-size="10.00">longname</text>
<text text-anchor="middle" x="331" y="-575.5" font-family="Helvetica,sans-Serif" font-size="10.00">modname</text>
<text text-anchor="middle" x="331" y="-564.5" font-family="Helvetica,sans-Serif" font-size="10.00">realm</text>
<text text-anchor="middle" x="331" y="-553.5" font-family="Helvetica,sans-Serif" font-size="10.00">standname</text>
<text text-anchor="middle" x="331" y="-542.5" font-family="Helvetica,sans-Serif" font-size="10.00">units</text>
<text text-anchor="middle" x="331" y="-531.5" font-family="Helvetica,sans-Serif" font-size="10.00">varname</text>
</g>
<!-- Node6 -->
<g id="node6" class="node">
<title>Node6</title>
<g id="a_node6"><a xlink:href="structfms__diag__yaml__mod_1_1diagyamlfilesvar__type.html" target="_top" xlink:title="type to hold the info a diag_field">
<polygon fill="white" stroke="black" points="268.5,-432 268.5,-451 393.5,-451 393.5,-432 268.5,-432"/>
<text text-anchor="middle" x="331" y="-439" font-family="Helvetica,sans-Serif" font-size="10.00">diagyamlfilesvar_type</text>
</a>
</g>
</g>
<!-- Node3&#45;&gt;Node6 -->
<g id="edge6" class="edge">
<title>Node3&#45;&gt;Node6</title>
<path fill="none" stroke="#9a32cd" stroke-dasharray="5,2" d="M116.01,-492.6C133.83,-483.39 156.03,-473.06 177,-466.5 206.41,-457.29 240.12,-451.32 268.4,-447.53"/>
<polygon fill="#9a32cd" stroke="#9a32cd" points="114.33,-489.53 107.12,-497.29 117.6,-495.72 114.33,-489.53"/>
<text text-anchor="middle" x="213" y="-524.5" font-family="Helvetica,sans-Serif" font-size="10.00"> var_fname</text>
<text text-anchor="middle" x="213" y="-513.5" font-family="Helvetica,sans-Serif" font-size="10.00">var_longname</text>
<text text-anchor="middle" x="213" y="-502.5" font-family="Helvetica,sans-Serif" font-size="10.00">var_module</text>
<text text-anchor="middle" x="213" y="-491.5" font-family="Helvetica,sans-Serif" font-size="10.00">var_outname</text>
<text text-anchor="middle" x="213" y="-480.5" font-family="Helvetica,sans-Serif" font-size="10.00">var_units</text>
<text text-anchor="middle" x="213" y="-469.5" font-family="Helvetica,sans-Serif" font-size="10.00">var_varname</text>
</g>
<!-- Node4 -->
<g id="node4" class="node">
<title>Node4</title>
<g id="a_node4"><a xlink:title=" ">
<polygon fill="white" stroke="#bfbfbf" points="267,-225.5 267,-255.5 395,-255.5 395,-225.5 267,-225.5"/>
<text text-anchor="start" x="275" y="-243.5" font-family="Helvetica,sans-Serif" font-size="10.00">class(*), dimension</text>
<text text-anchor="middle" x="331" y="-232.5" font-family="Helvetica,sans-Serif" font-size="10.00">(:), allocatable, private</text>
</a>
</g>
</g>
<!-- Node4&#45;&gt;Node1 -->
<g id="edge3" class="edge">
<title>Node4&#45;&gt;Node1</title>
<path fill="none" stroke="#9a32cd" stroke-dasharray="5,2" d="M405.15,-240.5C448.13,-240.5 501.4,-240.5 539.88,-240.5"/>
<polygon fill="#9a32cd" stroke="#9a32cd" points="405.03,-237 395.03,-240.5 405.03,-244 405.03,-237"/>
<text text-anchor="middle" x="467.5" y="-243.5" font-family="Helvetica,sans-Serif" font-size="10.00"> data_range</text>
</g>
<!-- Node5 -->
<g id="node5" class="node">
<title>Node5</title>
<g id="a_node5"><a xlink:title=" ">
<polygon fill="white" stroke="#bfbfbf" points="272.5,-176.5 272.5,-206.5 389.5,-206.5 389.5,-176.5 272.5,-176.5"/>
<text text-anchor="start" x="280.5" y="-194.5" font-family="Helvetica,sans-Serif" font-size="10.00">class(*), allocatable,</text>
<text text-anchor="middle" x="331" y="-183.5" font-family="Helvetica,sans-Serif" font-size="10.00"> private</text>
</a>
</g>
</g>
<!-- Node5&#45;&gt;Node1 -->
<g id="edge4" class="edge">
<title>Node5&#45;&gt;Node1</title>
<path fill="none" stroke="#9a32cd" stroke-dasharray="5,2" d="M399.88,-203.02C436.17,-209.34 481.59,-217.49 522,-225.5 530.54,-227.19 539.65,-229.1 548.35,-230.97"/>
<polygon fill="#9a32cd" stroke="#9a32cd" points="400.34,-199.55 389.89,-201.29 399.15,-206.45 400.34,-199.55"/>
<text text-anchor="middle" x="467.5" y="-228.5" font-family="Helvetica,sans-Serif" font-size="10.00"> missing_value</text>
</g>
<!-- Node6&#45;&gt;Node1 -->
<g id="edge5" class="edge">
<title>Node6&#45;&gt;Node1</title>
<path fill="none" stroke="#9a32cd" stroke-dasharray="5,2" d="M372.92,-428.34C380.49,-425.24 388.16,-421.61 395,-417.5 477.92,-367.67 557.3,-279.74 582.65,-250.37"/>
<polygon fill="#9a32cd" stroke="#9a32cd" points="371.53,-425.13 363.46,-431.99 374.05,-431.66 371.53,-425.13"/>
<text text-anchor="middle" x="467.5" y="-408.5" font-family="Helvetica,sans-Serif" font-size="10.00"> diag_field</text>
</g>
<!-- Node7 -->
<g id="node7" class="node">
<title>Node7</title>
<g id="a_node7"><a xlink:title=" ">
<polygon fill="white" stroke="#bfbfbf" points="3,-424 3,-443 156,-443 156,-424 3,-424"/>
<text text-anchor="middle" x="79.5" y="-431" font-family="Helvetica,sans-Serif" font-size="10.00">character(len=max_str_len)</text>
</a>
</g>
</g>
<!-- Node7&#45;&gt;Node6 -->
<g id="edge7" class="edge">
<title>Node7&#45;&gt;Node6</title>
<path fill="none" stroke="#9a32cd" stroke-dasharray="5,2" d="M166.08,-430.96C192.67,-430.72 222.06,-431.01 249,-432.5 255.22,-432.84 261.69,-433.34 268.14,-433.91"/>
<polygon fill="#9a32cd" stroke="#9a32cd" points="166,-427.46 156.04,-431.08 166.08,-434.46 166,-427.46"/>
<text text-anchor="middle" x="213" y="-435.5" font-family="Helvetica,sans-Serif" font-size="10.00"> var_attributes</text>
</g>
<!-- Node8 -->
<g id="node8" class="node">
<title>Node8</title>
<g id="a_node8"><a xlink:title=" ">
<polygon fill="white" stroke="#bfbfbf" points="17,-374.5 17,-404.5 142,-404.5 142,-374.5 17,-374.5"/>
<text text-anchor="start" x="25" y="-392.5" font-family="Helvetica,sans-Serif" font-size="10.00">real(kind=r4_kind),</text>
<text text-anchor="middle" x="79.5" y="-381.5" font-family="Helvetica,sans-Serif" font-size="10.00"> dimension(2), private</text>
</a>
</g>
</g>
<!-- Node8&#45;&gt;Node6 -->
<g id="edge8" class="edge">
<title>Node8&#45;&gt;Node6</title>
<path fill="none" stroke="#9a32cd" stroke-dasharray="5,2" d="M152.18,-398.02C182.29,-402.26 217.55,-408.08 249,-415.5 267.54,-419.88 287.97,-426.45 303.67,-431.88"/>
<polygon fill="#9a32cd" stroke="#9a32cd" points="152.56,-394.54 142.18,-396.65 151.61,-401.48 152.56,-394.54"/>
<text text-anchor="middle" x="213" y="-418.5" font-family="Helvetica,sans-Serif" font-size="10.00"> var_zbounds</text>
</g>
<!-- Node9 -->
<g id="node9" class="node">
<title>Node9</title>
<g id="a_node9"><a xlink:title=" ">
<polygon fill="white" stroke="#bfbfbf" points="54,-300 54,-319 105,-319 105,-300 54,-300"/>
<text text-anchor="middle" x="79.5" y="-307" font-family="Helvetica,sans-Serif" font-size="10.00">integer</text>
</a>
</g>
</g>
<!-- Node9&#45;&gt;Node1 -->
<g id="edge15" class="edge">
<title>Node9&#45;&gt;Node1</title>
<path fill="none" stroke="#9a32cd" stroke-dasharray="5,2" d="M115.26,-306.35C190,-299.34 371.43,-281.02 522,-255.5 531.19,-253.94 541,-251.99 550.26,-250.01"/>
<polygon fill="#9a32cd" stroke="#9a32cd" points="114.66,-302.89 105.02,-307.3 115.31,-309.86 114.66,-302.89"/>
<text text-anchor="middle" x="331" y="-402.5" font-family="Helvetica,sans-Serif" font-size="10.00"> area</text>
<text text-anchor="middle" x="331" y="-391.5" font-family="Helvetica,sans-Serif" font-size="10.00">axis_ids</text>
<text text-anchor="middle" x="331" y="-380.5" font-family="Helvetica,sans-Serif" font-size="10.00">buffer_ids</text>
<text text-anchor="middle" x="331" y="-369.5" font-family="Helvetica,sans-Serif" font-size="10.00">diag_id</text>
<text text-anchor="middle" x="331" y="-358.5" font-family="Helvetica,sans-Serif" font-size="10.00">file_ids</text>
<text text-anchor="middle" x="331" y="-347.5" font-family="Helvetica,sans-Serif" font-size="10.00">frequency</text>
<text text-anchor="middle" x="331" y="-336.5" font-family="Helvetica,sans-Serif" font-size="10.00">num_attributes</text>
<text text-anchor="middle" x="331" y="-325.5" font-family="Helvetica,sans-Serif" font-size="10.00">tile_count</text>
<text text-anchor="middle" x="331" y="-314.5" font-family="Helvetica,sans-Serif" font-size="10.00">type_of_domain</text>
<text text-anchor="middle" x="331" y="-303.5" font-family="Helvetica,sans-Serif" font-size="10.00">vartype</text>
<text text-anchor="middle" x="331" y="-292.5" font-family="Helvetica,sans-Serif" font-size="10.00">...</text>
</g>
<!-- Node9&#45;&gt;Node6 -->
<g id="edge9" class="edge">
<title>Node9&#45;&gt;Node6</title>
<path fill="none" stroke="#9a32cd" stroke-dasharray="5,2" d="M115.12,-308.96C153.04,-310.29 213.2,-318.37 249,-353.5 270.09,-374.2 247.07,-395.69 267,-417.5 272.76,-423.81 280.36,-428.47 288.28,-431.91"/>
<polygon fill="#9a32cd" stroke="#9a32cd" points="115.13,-305.46 105.05,-308.74 114.98,-312.46 115.13,-305.46"/>
<text text-anchor="middle" x="213" y="-389.5" font-family="Helvetica,sans-Serif" font-size="10.00"> n_diurnal</text>
<text text-anchor="middle" x="213" y="-378.5" font-family="Helvetica,sans-Serif" font-size="10.00">pow_value</text>
<text text-anchor="middle" x="213" y="-367.5" font-family="Helvetica,sans-Serif" font-size="10.00">var_kind</text>
<text text-anchor="middle" x="213" y="-356.5" font-family="Helvetica,sans-Serif" font-size="10.00">var_reduction</text>
</g>
<!-- Node10 -->
<g id="node10" class="node">
<title>Node10</title>
<g id="a_node10"><a xlink:title=" ">
<polygon fill="white" stroke="#bfbfbf" points="275.5,-116 275.5,-157 386.5,-157 386.5,-116 275.5,-116"/>
<text text-anchor="start" x="283.5" y="-145" font-family="Helvetica,sans-Serif" font-size="10.00">class(*), dimension</text>
<text text-anchor="start" x="283.5" y="-134" font-family="Helvetica,sans-Serif" font-size="10.00">(:,:,:,:), allocatable,</text>
<text text-anchor="middle" x="331" y="-123" font-family="Helvetica,sans-Serif" font-size="10.00"> private</text>
</a>
</g>
</g>
<!-- Node10&#45;&gt;Node1 -->
<g id="edge10" class="edge">
<title>Node10&#45;&gt;Node1</title>
<path fill="none" stroke="#9a32cd" stroke-dasharray="5,2" d="M396.6,-148.38C434.39,-156.81 482.31,-170.12 522,-189.5 544.76,-200.61 567.72,-219.46 580.58,-230.86"/>
<polygon fill="#9a32cd" stroke="#9a32cd" points="397.24,-144.94 386.73,-146.24 395.76,-151.78 397.24,-144.94"/>
<text text-anchor="middle" x="467.5" y="-192.5" font-family="Helvetica,sans-Serif" font-size="10.00"> data_buffer</text>
</g>
<!-- Node11 -->
<g id="node11" class="node">
<title>Node11</title>
<g id="a_node11"><a xlink:title=" ">
<polygon fill="white" stroke="#bfbfbf" points="273,-66.5 273,-96.5 389,-96.5 389,-66.5 273,-66.5"/>
<text text-anchor="start" x="281" y="-84.5" font-family="Helvetica,sans-Serif" font-size="10.00">class(diagdomain_t)</text>
<text text-anchor="middle" x="331" y="-73.5" font-family="Helvetica,sans-Serif" font-size="10.00">, pointer, private</text>
</a>
</g>
</g>
<!-- Node11&#45;&gt;Node1 -->
<g id="edge11" class="edge">
<title>Node11&#45;&gt;Node1</title>
<path fill="none" stroke="#9a32cd" stroke-dasharray="5,2" d="M399.51,-89.78C438.3,-97.23 486.26,-111.24 522,-137.5 556.35,-162.73 578.84,-210.55 587.27,-230.92"/>
<polygon fill="#9a32cd" stroke="#9a32cd" points="399.81,-86.28 389.35,-87.94 398.57,-93.17 399.81,-86.28"/>
<text text-anchor="middle" x="467.5" y="-140.5" font-family="Helvetica,sans-Serif" font-size="10.00"> domain</text>
</g>
<!-- Node12 -->
<g id="node12" class="node">
<title>Node12</title>
<g id="a_node12"><a xlink:href="group__diag__data__mod.html#structdiag__data__mod_1_1fmsdiagattribute__type" target="_top" xlink:title="Type to hold the attributes of the field/axis/file.">
<polygon fill="white" stroke="black" points="268.5,-28 268.5,-47 393.5,-47 393.5,-28 268.5,-28"/>
<text text-anchor="middle" x="331" y="-35" font-family="Helvetica,sans-Serif" font-size="10.00">fmsdiagattribute_type</text>
</a>
</g>
</g>
<!-- Node12&#45;&gt;Node1 -->
<g id="edge12" class="edge">
<title>Node12&#45;&gt;Node1</title>
<path fill="none" stroke="#9a32cd" stroke-dasharray="5,2" d="M404.08,-37.1C442.85,-40.43 489.28,-50.55 522,-77.5 572.05,-118.72 586.47,-202.72 589.99,-230.98"/>
<polygon fill="#9a32cd" stroke="#9a32cd" points="404.11,-33.59 393.89,-36.36 403.61,-40.57 404.11,-33.59"/>
<text text-anchor="middle" x="467.5" y="-80.5" font-family="Helvetica,sans-Serif" font-size="10.00"> attributes</text>
</g>
<!-- Node13 -->
<g id="node13" class="node">
<title>Node13</title>
<g id="a_node13"><a xlink:title=" ">
<polygon fill="white" stroke="#bfbfbf" points="1.5,-50 1.5,-69 157.5,-69 157.5,-50 1.5,-50"/>
<text text-anchor="middle" x="79.5" y="-57" font-family="Helvetica,sans-Serif" font-size="10.00">character(len=:), allocatable</text>
</a>
</g>
</g>
<!-- Node13&#45;&gt;Node12 -->
<g id="edge13" class="edge">
<title>Node13&#45;&gt;Node12</title>
<path fill="none" stroke="#9a32cd" stroke-dasharray="5,2" d="M167.86,-51.8C200.94,-48.88 237.88,-45.62 268.14,-42.95"/>
<polygon fill="#9a32cd" stroke="#9a32cd" points="167.39,-48.32 157.73,-52.69 168,-55.3 167.39,-48.32"/>
<text text-anchor="middle" x="213" y="-52.5" font-family="Helvetica,sans-Serif" font-size="10.00"> att_name</text>
</g>
<!-- Node14 -->
<g id="node14" class="node">
<title>Node14</title>
<g id="a_node14"><a xlink:title=" ">
<polygon fill="white" stroke="#bfbfbf" points="24,-0.5 24,-30.5 135,-30.5 135,-0.5 24,-0.5"/>
<text text-anchor="start" x="32" y="-18.5" font-family="Helvetica,sans-Serif" font-size="10.00">class(*), dimension</text>
<text text-anchor="middle" x="79.5" y="-7.5" font-family="Helvetica,sans-Serif" font-size="10.00">(:), allocatable</text>
</a>
</g>
</g>
<!-- Node14&#45;&gt;Node12 -->
<g id="edge14" class="edge">
<title>Node14&#45;&gt;Node12</title>
<path fill="none" stroke="#9a32cd" stroke-dasharray="5,2" d="M145.67,-21.25C183.58,-24.59 231.07,-28.78 268.36,-32.06"/>
<polygon fill="#9a32cd" stroke="#9a32cd" points="145.52,-17.72 135.25,-20.33 144.91,-24.69 145.52,-17.72"/>
<text text-anchor="middle" x="213" y="-33.5" font-family="Helvetica,sans-Serif" font-size="10.00"> att_value</text>
</g>
</g>
</svg>
