<?xml version="1.0" encoding="UTF-8" standalone="no"?>
<!DOCTYPE svg PUBLIC "-//W3C//DTD SVG 1.1//EN"
 "http://www.w3.org/Graphics/SVG/1.1/DTD/svg11.dtd">
<!-- Generated by graphviz version 2.43.0 (0)
 -->
<!-- Title: fmsdiagobjiterator_t Pages: 1 -->
<svg width="155pt" height="242pt"
 viewBox="0.00 0.00 155.00 242.00" xmlns="http://www.w3.org/2000/svg" xmlns:xlink="http://www.w3.org/1999/xlink">
<g id="graph0" class="graph" transform="scale(1 1) rotate(0) translate(4 238)">
<title>fmsdiagobjiterator_t</title>
<polygon fill="white" stroke="transparent" points="-4,4 -4,-238 151,-238 151,4 -4,4"/>
<!-- Node1 -->
<g id="node1" class="node">
<title>Node1</title>
<g id="a_node1"><a xlink:title="Iterator used to traverse the objects of the container.">
<polygon fill="#bfbfbf" stroke="black" points="0,-0.5 0,-19.5 116,-19.5 116,-0.5 0,-0.5"/>
<text text-anchor="middle" x="58" y="-7.5" font-family="Helvetica,sans-Serif" font-size="10.00">fmsdiagobjiterator_t</text>
</a>
</g>
</g>
<!-- Node2 -->
<g id="node2" class="node">
<title>Node2</title>
<g id="a_node2"><a xlink:href="group__fms__diag__dlinked__list__mod.html#structfms__diag__dlinked__list__mod_1_1fmsdlliterator__t" target="_top" xlink:title="Linked list iterator.">
<polygon fill="white" stroke="black" points="12,-67.5 12,-86.5 104,-86.5 104,-67.5 12,-67.5"/>
<text text-anchor="middle" x="58" y="-74.5" font-family="Helvetica,sans-Serif" font-size="10.00">fmsdlliterator_t</text>
</a>
</g>
</g>
<!-- Node2&#45;&gt;Node1 -->
<g id="edge1" class="edge">
<title>Node2&#45;&gt;Node1</title>
<path fill="none" stroke="#9a32cd" stroke-dasharray="5,2" d="M58,-57.04C58,-44.67 58,-29.12 58,-19.63"/>
<polygon fill="#9a32cd" stroke="#9a32cd" points="54.5,-57.23 58,-67.23 61.5,-57.23 54.5,-57.23"/>
<text text-anchor="middle" x="69.5" y="-41" font-family="Helvetica,sans-Serif" font-size="10.00"> liter</text>
</g>
<!-- Node3 -->
<g id="node3" class="node">
<title>Node3</title>
<g id="a_node3"><a xlink:href="structfms__diag__dlinked__list__mod_1_1fmsdllistnode__t.html" target="_top" xlink:title="The doubly&#45;linked list node type.">
<polygon fill="white" stroke="black" points="12,-146.5 12,-165.5 104,-165.5 104,-146.5 12,-146.5"/>
<text text-anchor="middle" x="58" y="-153.5" font-family="Helvetica,sans-Serif" font-size="10.00">fmsdllistnode_t</text>
</a>
</g>
</g>
<!-- Node3&#45;&gt;Node2 -->
<g id="edge2" class="edge">
<title>Node3&#45;&gt;Node2</title>
<path fill="none" stroke="#9a32cd" stroke-dasharray="5,2" d="M58,-136.31C58,-120.59 58,-98.81 58,-86.81"/>
<polygon fill="#9a32cd" stroke="#9a32cd" points="54.5,-136.47 58,-146.47 61.5,-136.47 54.5,-136.47"/>
<text text-anchor="middle" x="77" y="-119" font-family="Helvetica,sans-Serif" font-size="10.00"> current</text>
<text text-anchor="middle" x="77" y="-108" font-family="Helvetica,sans-Serif" font-size="10.00">end</text>
</g>
<!-- Node3&#45;&gt;Node3 -->
<g id="edge4" class="edge">
<title>Node3&#45;&gt;Node3</title>
<path fill="none" stroke="#9a32cd" stroke-dasharray="5,2" d="M114.27,-160.95C119.03,-159.89 122,-158.24 122,-156 122,-152.41 114.41,-150.34 104.02,-149.78"/>
<polygon fill="#9a32cd" stroke="#9a32cd" points="113.52,-157.52 104.02,-162.22 114.38,-164.46 113.52,-157.52"/>
<text text-anchor="middle" x="134.5" y="-159" font-family="Helvetica,sans-Serif" font-size="10.00"> next</text>
<text text-anchor="middle" x="134.5" y="-148" font-family="Helvetica,sans-Serif" font-size="10.00">prev</text>
</g>
<!-- Node4 -->
<g id="node4" class="node">
<title>Node4</title>
<g id="a_node4"><a xlink:title=" ">
<polygon fill="white" stroke="#bfbfbf" points="10.5,-214.5 10.5,-233.5 105.5,-233.5 105.5,-214.5 10.5,-214.5"/>
<text text-anchor="middle" x="58" y="-221.5" font-family="Helvetica,sans-Serif" font-size="10.00">class(*), pointer</text>
</a>
</g>
</g>
<!-- Node4&#45;&gt;Node3 -->
<g id="edge3" class="edge">
<title>Node4&#45;&gt;Node3</title>
<path fill="none" stroke="#9a32cd" stroke-dasharray="5,2" d="M58,-204.04C58,-191.47 58,-175.56 58,-165.84"/>
<polygon fill="#9a32cd" stroke="#9a32cd" points="54.5,-204.37 58,-214.37 61.5,-204.37 54.5,-204.37"/>
<text text-anchor="middle" x="80" y="-188" font-family="Helvetica,sans-Serif" font-size="10.00"> data_ptr</text>
</g>
</g>
</svg>
