<?xml version="1.0" encoding="UTF-8" standalone="no"?>
<!DOCTYPE svg PUBLIC "-//W3C//DTD SVG 1.1//EN"
 "http://www.w3.org/Graphics/SVG/1.1/DTD/svg11.dtd">
<!-- Generated by graphviz version 2.43.0 (0)
 -->
<!-- Title: fmsdiagfullaxis_type Pages: 1 -->
<!--zoomable 497 -->
<svg id="main" version="1.1" xmlns="http://www.w3.org/2000/svg" xmlns:xlink="http://www.w3.org/1999/xlink" xml:space="preserve" onload="init(evt)">
<style type="text/css"><![CDATA[
.edge:hover path { stroke: red; }
.edge:hover polygon { stroke: red; fill: red; }
]]></style>
<script type="text/javascript"><![CDATA[
var edges = document.getElementsByTagName('g');
if (edges && edges.length) {
  for (var i=0;i<edges.length;i++) {
    if (edges[i].id.substr(0,4)=='edge') {
      edges[i].setAttribute('class','edge');
    }
  }
}
]]></script>
        <defs>
                <circle id="rim" cx="0" cy="0" r="7"/>
                <circle id="rim2" cx="0" cy="0" r="3.5"/>
                <g id="zoomPlus">
                        <use xlink:href="#rim" fill="#404040">
                                <set attributeName="fill" to="#808080" begin="zoomplus.mouseover" end="zoomplus.mouseout"/>
                        </use>
                        <path d="M-4,0h8M0,-4v8" fill="none" stroke="white" stroke-width="1.5" pointer-events="none"/>
                </g>
                <g id="zoomMin">
                        <use xlink:href="#rim" fill="#404040">
                                <set attributeName="fill" to="#808080" begin="zoomminus.mouseover" end="zoomminus.mouseout"/>
                        </use>
                        <path d="M-4,0h8" fill="none" stroke="white" stroke-width="1.5" pointer-events="none"/>
                </g>
                <g id="dirArrow">
                        <path fill="none" stroke="white" stroke-width="1.5" d="M0,-3.0v7 M-2.5,-0.5L0,-3.0L2.5,-0.5"/>
                </g>
               <g id="resetDef">
                       <use xlink:href="#rim2" fill="#404040">
                               <set attributeName="fill" to="#808080" begin="reset.mouseover" end="reset.mouseout"/>
                       </use>
               </g>
        </defs>

<script type="text/javascript">
var viewWidth = 630;
var viewHeight = 497;
var sectionId = 'dynsection-0';
</script>
<script xlink:href="svgpan.js"/>
<svg id="graph" class="graph">
<g id="viewport">
<title>fmsdiagfullaxis_type</title>
<polygon fill="white" stroke="transparent" points="-4,4 -4,-492.5 626,-492.5 626,4 -4,4"/>
<!-- Node1 -->
<g id="node1" class="node">
<title>Node1</title>
<g id="a_node1"><a xlink:title="Type to hold the diagnostic axis description.">
<polygon fill="#bfbfbf" stroke="black" points="503,-175 503,-194 622,-194 622,-175 503,-175"/>
<text text-anchor="middle" x="562.5" y="-182" font-family="Helvetica,sans-Serif" font-size="10.00">fmsdiagfullaxis_type</text>
</a>
</g>
</g>
<!-- Node2 -->
<g id="node2" class="node">
<title>Node2</title>
<g id="a_node2"><a xlink:href="structfms__diag__axis__object__mod_1_1fmsdiagaxis__type.html" target="_top" xlink:title="Type to hold the diagnostic axis description.">
<polygon fill="white" stroke="black" points="269.5,-293 269.5,-312 373.5,-312 373.5,-293 269.5,-293"/>
<text text-anchor="middle" x="321.5" y="-300" font-family="Helvetica,sans-Serif" font-size="10.00">fmsdiagaxis_type</text>
</a>
</g>
</g>
<!-- Node2&#45;&gt;Node1 -->
<g id="edge1" class="edge">
<title>Node2&#45;&gt;Node1</title>
<path fill="none" stroke="midnightblue" d="M372.99,-313.59C406.73,-318.3 451.01,-319.07 485,-300.5 527.98,-277.02 550.9,-217.84 558.55,-194.34"/>
<polygon fill="midnightblue" stroke="midnightblue" points="373.29,-310.09 362.87,-312.02 372.22,-317.01 373.29,-310.09"/>
</g>
<!-- Node3 -->
<g id="node3" class="node">
<title>Node3</title>
<g id="a_node3"><a xlink:title=" ">
<polygon fill="white" stroke="#bfbfbf" points="52.5,-326 52.5,-345 103.5,-345 103.5,-326 52.5,-326"/>
<text text-anchor="middle" x="78" y="-333" font-family="Helvetica,sans-Serif" font-size="10.00">integer</text>
</a>
</g>
</g>
<!-- Node3&#45;&gt;Node1 -->
<g id="edge11" class="edge">
<title>Node3&#45;&gt;Node1</title>
<path fill="none" stroke="#9a32cd" stroke-dasharray="5,2" d="M113.61,-344.96C188.05,-363.2 366.26,-395.23 485,-321.5 532.91,-291.75 553.36,-220.54 559.43,-194.37"/>
<polygon fill="#9a32cd" stroke="#9a32cd" points="114.36,-341.54 103.81,-342.5 112.65,-348.33 114.36,-341.54"/>
<text text-anchor="middle" x="321.5" y="-480.5" font-family="Helvetica,sans-Serif" font-size="10.00"> direction</text>
<text text-anchor="middle" x="321.5" y="-469.5" font-family="Helvetica,sans-Serif" font-size="10.00">domain_position</text>
<text text-anchor="middle" x="321.5" y="-458.5" font-family="Helvetica,sans-Serif" font-size="10.00">edges_id</text>
<text text-anchor="middle" x="321.5" y="-447.5" font-family="Helvetica,sans-Serif" font-size="10.00">length</text>
<text text-anchor="middle" x="321.5" y="-436.5" font-family="Helvetica,sans-Serif" font-size="10.00">nsubaxis</text>
<text text-anchor="middle" x="321.5" y="-425.5" font-family="Helvetica,sans-Serif" font-size="10.00">num_attributes</text>
<text text-anchor="middle" x="321.5" y="-414.5" font-family="Helvetica,sans-Serif" font-size="10.00">structured_ids</text>
<text text-anchor="middle" x="321.5" y="-403.5" font-family="Helvetica,sans-Serif" font-size="10.00">subaxis</text>
<text text-anchor="middle" x="321.5" y="-392.5" font-family="Helvetica,sans-Serif" font-size="10.00">tile_count</text>
<text text-anchor="middle" x="321.5" y="-381.5" font-family="Helvetica,sans-Serif" font-size="10.00">type_of_domain</text>
<text text-anchor="middle" x="321.5" y="-370.5" font-family="Helvetica,sans-Serif" font-size="10.00">...</text>
</g>
<!-- Node3&#45;&gt;Node2 -->
<g id="edge2" class="edge">
<title>Node3&#45;&gt;Node2</title>
<path fill="none" stroke="#9a32cd" stroke-dasharray="5,2" d="M113.93,-330.73C154.7,-325.16 222.46,-315.9 269.2,-309.51"/>
<polygon fill="#9a32cd" stroke="#9a32cd" points="113.37,-327.27 103.94,-332.09 114.32,-334.21 113.37,-327.27"/>
<text text-anchor="middle" x="199" y="-324.5" font-family="Helvetica,sans-Serif" font-size="10.00"> axis_id</text>
</g>
<!-- Node4 -->
<g id="node4" class="node">
<title>Node4</title>
<g id="a_node4"><a xlink:title=" ">
<polygon fill="white" stroke="#bfbfbf" points="242,-241.5 242,-271.5 401,-271.5 401,-241.5 242,-241.5"/>
<text text-anchor="start" x="250" y="-259.5" font-family="Helvetica,sans-Serif" font-size="10.00">character(len=:), allocatable,</text>
<text text-anchor="middle" x="321.5" y="-248.5" font-family="Helvetica,sans-Serif" font-size="10.00"> private</text>
</a>
</g>
</g>
<!-- Node4&#45;&gt;Node1 -->
<g id="edge3" class="edge">
<title>Node4&#45;&gt;Node1</title>
<path fill="none" stroke="#9a32cd" stroke-dasharray="5,2" d="M393,-238.83C421.7,-231.27 455.1,-222 485,-212.5 502.52,-206.93 521.98,-199.8 536.88,-194.13"/>
<polygon fill="#9a32cd" stroke="#9a32cd" points="391.84,-235.52 383.06,-241.43 393.62,-242.29 391.84,-235.52"/>
<text text-anchor="middle" x="452" y="-288.5" font-family="Helvetica,sans-Serif" font-size="10.00"> aux</text>
<text text-anchor="middle" x="452" y="-277.5" font-family="Helvetica,sans-Serif" font-size="10.00">axis_name</text>
<text text-anchor="middle" x="452" y="-266.5" font-family="Helvetica,sans-Serif" font-size="10.00">edges_name</text>
<text text-anchor="middle" x="452" y="-255.5" font-family="Helvetica,sans-Serif" font-size="10.00">long_name</text>
<text text-anchor="middle" x="452" y="-244.5" font-family="Helvetica,sans-Serif" font-size="10.00">type_of_data</text>
<text text-anchor="middle" x="452" y="-233.5" font-family="Helvetica,sans-Serif" font-size="10.00">units</text>
</g>
<!-- Node5 -->
<g id="node5" class="node">
<title>Node5</title>
<g id="a_node5"><a xlink:title=" ">
<polygon fill="white" stroke="#bfbfbf" points="257.5,-192.5 257.5,-222.5 385.5,-222.5 385.5,-192.5 257.5,-192.5"/>
<text text-anchor="start" x="265.5" y="-210.5" font-family="Helvetica,sans-Serif" font-size="10.00">class(*), dimension</text>
<text text-anchor="middle" x="321.5" y="-199.5" font-family="Helvetica,sans-Serif" font-size="10.00">(:), allocatable, private</text>
</a>
</g>
</g>
<!-- Node5&#45;&gt;Node1 -->
<g id="edge4" class="edge">
<title>Node5&#45;&gt;Node1</title>
<path fill="none" stroke="#9a32cd" stroke-dasharray="5,2" d="M395.62,-200.46C430.06,-197.15 470.59,-193.25 502.97,-190.13"/>
<polygon fill="#9a32cd" stroke="#9a32cd" points="395.23,-196.99 385.61,-201.43 395.9,-203.95 395.23,-196.99"/>
<text text-anchor="middle" x="452" y="-200.5" font-family="Helvetica,sans-Serif" font-size="10.00"> axis_data</text>
</g>
<!-- Node6 -->
<g id="node6" class="node">
<title>Node6</title>
<g id="a_node6"><a xlink:title=" ">
<polygon fill="white" stroke="#bfbfbf" points="272,-154 272,-173 371,-173 371,-154 272,-154"/>
<text text-anchor="middle" x="321.5" y="-161" font-family="Helvetica,sans-Serif" font-size="10.00">character(len=1)</text>
</a>
</g>
</g>
<!-- Node6&#45;&gt;Node1 -->
<g id="edge5" class="edge">
<title>Node6&#45;&gt;Node1</title>
<path fill="none" stroke="#9a32cd" stroke-dasharray="5,2" d="M381.5,-164.71C412.4,-165.78 450.82,-167.77 485,-171.5 493.3,-172.41 502.07,-173.64 510.59,-174.98"/>
<polygon fill="#9a32cd" stroke="#9a32cd" points="381.43,-161.21 371.33,-164.39 381.21,-168.21 381.43,-161.21"/>
<text text-anchor="middle" x="452" y="-174.5" font-family="Helvetica,sans-Serif" font-size="10.00"> cart_name</text>
</g>
<!-- Node7 -->
<g id="node7" class="node">
<title>Node7</title>
<g id="a_node7"><a xlink:title=" ">
<polygon fill="white" stroke="#bfbfbf" points="263,-104.5 263,-134.5 380,-134.5 380,-104.5 263,-104.5"/>
<text text-anchor="start" x="271" y="-122.5" font-family="Helvetica,sans-Serif" font-size="10.00">class(diagdomain_t)</text>
<text text-anchor="middle" x="321.5" y="-111.5" font-family="Helvetica,sans-Serif" font-size="10.00">, allocatable, private</text>
</a>
</g>
</g>
<!-- Node7&#45;&gt;Node1 -->
<g id="edge6" class="edge">
<title>Node7&#45;&gt;Node1</title>
<path fill="none" stroke="#9a32cd" stroke-dasharray="5,2" d="M390.21,-129.51C419.69,-134.72 454.42,-142.01 485,-151.5 505.17,-157.76 527.22,-167.61 542.44,-174.92"/>
<polygon fill="#9a32cd" stroke="#9a32cd" points="390.47,-126.01 380.02,-127.76 389.28,-132.91 390.47,-126.01"/>
<text text-anchor="middle" x="452" y="-154.5" font-family="Helvetica,sans-Serif" font-size="10.00"> axis_domain</text>
</g>
<!-- Node8 -->
<g id="node8" class="node">
<title>Node8</title>
<g id="a_node8"><a xlink:title=" ">
<polygon fill="white" stroke="#bfbfbf" points="266,-66 266,-85 377,-85 377,-66 266,-66"/>
<text text-anchor="middle" x="321.5" y="-73" font-family="Helvetica,sans-Serif" font-size="10.00">character(len=128)</text>
</a>
</g>
</g>
<!-- Node8&#45;&gt;Node1 -->
<g id="edge7" class="edge">
<title>Node8&#45;&gt;Node1</title>
<path fill="none" stroke="#9a32cd" stroke-dasharray="5,2" d="M386.92,-86.42C417.82,-93.36 454.63,-104.19 485,-120.5 512.46,-135.25 539.12,-160.9 552.54,-174.83"/>
<polygon fill="#9a32cd" stroke="#9a32cd" points="387.62,-82.99 377.11,-84.31 386.14,-89.84 387.62,-82.99"/>
<text text-anchor="middle" x="452" y="-123.5" font-family="Helvetica,sans-Serif" font-size="10.00"> req</text>
</g>
<!-- Node9 -->
<g id="node9" class="node">
<title>Node9</title>
<g id="a_node9"><a xlink:href="group__diag__data__mod.html#structdiag__data__mod_1_1fmsdiagattribute__type" target="_top" xlink:title="Type to hold the attributes of the field/axis/file.">
<polygon fill="white" stroke="black" points="259,-28 259,-47 384,-47 384,-28 259,-28"/>
<text text-anchor="middle" x="321.5" y="-35" font-family="Helvetica,sans-Serif" font-size="10.00">fmsdiagattribute_type</text>
</a>
</g>
</g>
<!-- Node9&#45;&gt;Node1 -->
<g id="edge8" class="edge">
<title>Node9&#45;&gt;Node1</title>
<path fill="none" stroke="#9a32cd" stroke-dasharray="5,2" d="M394.26,-44.98C424.32,-50.8 458.39,-61.13 485,-79.5 521.94,-105 547.67,-154.3 557.3,-174.99"/>
<polygon fill="#9a32cd" stroke="#9a32cd" points="394.69,-41.5 384.23,-43.18 393.45,-48.39 394.69,-41.5"/>
<text text-anchor="middle" x="452" y="-82.5" font-family="Helvetica,sans-Serif" font-size="10.00"> attributes</text>
</g>
<!-- Node10 -->
<g id="node10" class="node">
<title>Node10</title>
<g id="a_node10"><a xlink:title=" ">
<polygon fill="white" stroke="#bfbfbf" points="0,-50 0,-69 156,-69 156,-50 0,-50"/>
<text text-anchor="middle" x="78" y="-57" font-family="Helvetica,sans-Serif" font-size="10.00">character(len=:), allocatable</text>
</a>
</g>
</g>
<!-- Node10&#45;&gt;Node9 -->
<g id="edge9" class="edge">
<title>Node10&#45;&gt;Node9</title>
<path fill="none" stroke="#9a32cd" stroke-dasharray="5,2" d="M166.31,-51.55C196.89,-48.76 230.58,-45.69 258.64,-43.14"/>
<polygon fill="#9a32cd" stroke="#9a32cd" points="165.72,-48.09 156.08,-52.48 166.35,-55.06 165.72,-48.09"/>
<text text-anchor="middle" x="199" y="-52.5" font-family="Helvetica,sans-Serif" font-size="10.00"> att_name</text>
</g>
<!-- Node11 -->
<g id="node11" class="node">
<title>Node11</title>
<g id="a_node11"><a xlink:title=" ">
<polygon fill="white" stroke="#bfbfbf" points="22.5,-0.5 22.5,-30.5 133.5,-30.5 133.5,-0.5 22.5,-0.5"/>
<text text-anchor="start" x="30.5" y="-18.5" font-family="Helvetica,sans-Serif" font-size="10.00">class(*), dimension</text>
<text text-anchor="middle" x="78" y="-7.5" font-family="Helvetica,sans-Serif" font-size="10.00">(:), allocatable</text>
</a>
</g>
</g>
<!-- Node11&#45;&gt;Node9 -->
<g id="edge10" class="edge">
<title>Node11&#45;&gt;Node9</title>
<path fill="none" stroke="#9a32cd" stroke-dasharray="5,2" d="M144.09,-21.43C179.71,-24.67 223.6,-28.67 258.69,-31.87"/>
<polygon fill="#9a32cd" stroke="#9a32cd" points="144.08,-17.91 133.8,-20.49 143.44,-24.89 144.08,-17.91"/>
<text text-anchor="middle" x="199" y="-31.5" font-family="Helvetica,sans-Serif" font-size="10.00"> att_value</text>
</g>
</g>
</svg>
        <g id="navigator" transform="translate(0 0)" fill="#404254">
                <rect fill="#f2f5e9" fill-opacity="0.5" stroke="#606060" stroke-width=".5" x="0" y="0" width="60" height="60"/>
                <use id="zoomplus" xlink:href="#zoomPlus" x="17" y="9" onmousedown="handleZoom(evt,'in')"/>
                <use id="zoomminus" xlink:href="#zoomMin" x="42" y="9" onmousedown="handleZoom(evt,'out')"/>
                <use id="reset" xlink:href="#resetDef" x="30" y="36" onmousedown="handleReset()"/>
                <g id="arrowUp" xlink:href="#dirArrow" transform="translate(30 24)" onmousedown="handlePan(0,-1)">
                  <use xlink:href="#rim" fill="#404040">
                        <set attributeName="fill" to="#808080" begin="arrowUp.mouseover" end="arrowUp.mouseout"/>
                  </use>
                  <path fill="none" stroke="white" stroke-width="1.5" d="M0,-3.0v7 M-2.5,-0.5L0,-3.0L2.5,-0.5"/>
                </g>
                <g id="arrowRight" xlink:href="#dirArrow" transform="rotate(90) translate(36 -43)" onmousedown="handlePan(1,0)">
                  <use xlink:href="#rim" fill="#404040">
                        <set attributeName="fill" to="#808080" begin="arrowRight.mouseover" end="arrowRight.mouseout"/>
                  </use>
                  <path fill="none" stroke="white" stroke-width="1.5" d="M0,-3.0v7 M-2.5,-0.5L0,-3.0L2.5,-0.5"/>
                </g>
                <g id="arrowDown" xlink:href="#dirArrow" transform="rotate(180) translate(-30 -48)" onmousedown="handlePan(0,1)">
                  <use xlink:href="#rim" fill="#404040">
                        <set attributeName="fill" to="#808080" begin="arrowDown.mouseover" end="arrowDown.mouseout"/>
                  </use>
                  <path fill="none" stroke="white" stroke-width="1.5" d="M0,-3.0v7 M-2.5,-0.5L0,-3.0L2.5,-0.5"/>
                </g>
                <g id="arrowLeft" xlink:href="#dirArrow" transform="rotate(270) translate(-36 17)" onmousedown="handlePan(-1,0)">
                  <use xlink:href="#rim" fill="#404040">
                        <set attributeName="fill" to="#808080" begin="arrowLeft.mouseover" end="arrowLeft.mouseout"/>
                  </use>
                  <path fill="none" stroke="white" stroke-width="1.5" d="M0,-3.0v7 M-2.5,-0.5L0,-3.0L2.5,-0.5"/>
                </g>
        </g>
        <svg viewBox="0 0 15 15" width="100%" height="30px" preserveAspectRatio="xMaxYMin meet">
         <g id="arrow_out" transform="scale(0.3 0.3)">
          <a xlink:href="structfms__diag__axis__object__mod_1_1fmsdiagfullaxis__type__coll__graph_org.svg" target="_base">
           <rect id="button" ry="5" rx="5" y="6" x="6" height="38" width="38"
                fill="#f2f5e9" fill-opacity="0.5" stroke="#606060" stroke-width="1.0"/>
           <path id="arrow"
             d="M 11.500037,31.436501 C 11.940474,20.09759 22.043105,11.32322 32.158766,21.979434 L 37.068811,17.246167 C 37.068811,17.246167 37.088388,32 37.088388,32 L 22.160133,31.978069 C 22.160133,31.978069 26.997745,27.140456 26.997745,27.140456 C 18.528582,18.264221 13.291696,25.230495 11.500037,31.436501 z"
             style="fill:#404040;"/>
          </a>
         </g>
        </svg>
</svg>
