<?xml version="1.0" encoding="UTF-8" standalone="no"?>
<!DOCTYPE svg PUBLIC "-//W3C//DTD SVG 1.1//EN"
 "http://www.w3.org/Graphics/SVG/1.1/DTD/svg11.dtd">
<!-- Generated by graphviz version 2.43.0 (0)
 -->
<!-- Title: fmsdiagattribute_type Pages: 1 -->
<svg width="294pt" height="106pt"
 viewBox="0.00 0.00 293.50 106.00" xmlns="http://www.w3.org/2000/svg" xmlns:xlink="http://www.w3.org/1999/xlink">
<g id="graph0" class="graph" transform="scale(1 1) rotate(0) translate(4 102)">
<title>fmsdiagattribute_type</title>
<polygon fill="white" stroke="transparent" points="-4,4 -4,-102 289.5,-102 289.5,4 -4,4"/>
<!-- Node1 -->
<g id="node1" class="node">
<title>Node1</title>
<g id="a_node1"><a xlink:title="Type to hold the attributes of the field/axis/file.">
<polygon fill="#bfbfbf" stroke="black" points="91.5,-0.5 91.5,-19.5 216.5,-19.5 216.5,-0.5 91.5,-0.5"/>
<text text-anchor="middle" x="154" y="-7.5" font-family="Helvetica,sans-Serif" font-size="10.00">fmsdiagattribute_type</text>
</a>
</g>
</g>
<!-- Node2 -->
<g id="node2" class="node">
<title>Node2</title>
<g id="a_node2"><a xlink:title=" ">
<polygon fill="white" stroke="#bfbfbf" points="0,-73 0,-92 156,-92 156,-73 0,-73"/>
<text text-anchor="middle" x="78" y="-80" font-family="Helvetica,sans-Serif" font-size="10.00">character(len=:), allocatable</text>
</a>
</g>
</g>
<!-- Node2&#45;&gt;Node1 -->
<g id="edge1" class="edge">
<title>Node2&#45;&gt;Node1</title>
<path fill="none" stroke="#9a32cd" stroke-dasharray="5,2" d="M95.04,-65.69C110.35,-51.49 132.26,-31.17 144.6,-19.72"/>
<polygon fill="#9a32cd" stroke="#9a32cd" points="92.27,-63.49 87.32,-72.86 97.03,-68.62 92.27,-63.49"/>
<text text-anchor="middle" x="148" y="-41" font-family="Helvetica,sans-Serif" font-size="10.00"> att_name</text>
</g>
<!-- Node3 -->
<g id="node3" class="node">
<title>Node3</title>
<g id="a_node3"><a xlink:title=" ">
<polygon fill="white" stroke="#bfbfbf" points="174.5,-67.5 174.5,-97.5 285.5,-97.5 285.5,-67.5 174.5,-67.5"/>
<text text-anchor="start" x="182.5" y="-85.5" font-family="Helvetica,sans-Serif" font-size="10.00">class(*), dimension</text>
<text text-anchor="middle" x="230" y="-74.5" font-family="Helvetica,sans-Serif" font-size="10.00">(:), allocatable</text>
</a>
</g>
</g>
<!-- Node3&#45;&gt;Node1 -->
<g id="edge2" class="edge">
<title>Node3&#45;&gt;Node1</title>
<path fill="none" stroke="#9a32cd" stroke-dasharray="5,2" d="M206.97,-60.14C192.43,-46.65 174.42,-29.94 163.59,-19.89"/>
<polygon fill="#9a32cd" stroke="#9a32cd" points="204.91,-63 214.62,-67.23 209.67,-57.87 204.91,-63"/>
<text text-anchor="middle" x="218.5" y="-41" font-family="Helvetica,sans-Serif" font-size="10.00"> att_value</text>
</g>
</g>
</svg>
