<?xml version="1.0" encoding="UTF-8" standalone="no"?>
<!DOCTYPE svg PUBLIC "-//W3C//DTD SVG 1.1//EN"
 "http://www.w3.org/Graphics/SVG/1.1/DTD/svg11.dtd">
<!-- Generated by graphviz version 2.43.0 (0)
 -->
<!-- Title: fmsdiagobject_type Pages: 1 -->
<svg width="662pt" height="369pt"
 viewBox="0.00 0.00 662.00 369.00" xmlns="http://www.w3.org/2000/svg" xmlns:xlink="http://www.w3.org/1999/xlink">
<g id="graph0" class="graph" transform="scale(1 1) rotate(0) translate(4 365)">
<title>fmsdiagobject_type</title>
<polygon fill="white" stroke="transparent" points="-4,4 -4,-365 658,-365 658,4 -4,4"/>
<!-- Node1 -->
<g id="node1" class="node">
<title>Node1</title>
<g id="a_node1"><a xlink:title=" ">
<polygon fill="#bfbfbf" stroke="black" points="541,-154.5 541,-173.5 654,-173.5 654,-154.5 541,-154.5"/>
<text text-anchor="middle" x="597.5" y="-161.5" font-family="Helvetica,sans-Serif" font-size="10.00">fmsdiagobject_type</text>
</a>
</g>
</g>
<!-- Node2 -->
<g id="node2" class="node">
<title>Node2</title>
<g id="a_node2"><a xlink:title=" ">
<polygon fill="white" stroke="#bfbfbf" points="291,-305.5 291,-324.5 340,-324.5 340,-305.5 291,-305.5"/>
<text text-anchor="middle" x="315.5" y="-312.5" font-family="Helvetica,sans-Serif" font-size="10.00">logical</text>
</a>
</g>
</g>
<!-- Node2&#45;&gt;Node1 -->
<g id="edge1" class="edge">
<title>Node2&#45;&gt;Node1</title>
<path fill="none" stroke="#9a32cd" stroke-dasharray="5,2" d="M350.36,-314.56C393.82,-312.47 469.93,-303.51 523,-268 559.57,-243.53 583.7,-194.26 592.63,-173.53"/>
<polygon fill="#9a32cd" stroke="#9a32cd" points="350.17,-311.07 340.31,-314.95 350.44,-318.06 350.17,-311.07"/>
<text text-anchor="middle" x="472" y="-353" font-family="Helvetica,sans-Serif" font-size="10.00"> axes_initialized</text>
<text text-anchor="middle" x="472" y="-342" font-family="Helvetica,sans-Serif" font-size="10.00">buffers_initialized</text>
<text text-anchor="middle" x="472" y="-331" font-family="Helvetica,sans-Serif" font-size="10.00">fields_initialized</text>
<text text-anchor="middle" x="472" y="-320" font-family="Helvetica,sans-Serif" font-size="10.00">files_initialized</text>
<text text-anchor="middle" x="472" y="-309" font-family="Helvetica,sans-Serif" font-size="10.00">initialized</text>
</g>
<!-- Node3 -->
<g id="node3" class="node">
<title>Node3</title>
<g id="a_node3"><a xlink:href="group__time__manager__mod.html#structtime__manager__mod_1_1time__type" target="_top" xlink:title="Type to represent amounts of time. Implemented as seconds and days to allow for larger intervals.">
<polygon fill="white" stroke="black" points="282.5,-198.5 282.5,-217.5 348.5,-217.5 348.5,-198.5 282.5,-198.5"/>
<text text-anchor="middle" x="315.5" y="-205.5" font-family="Helvetica,sans-Serif" font-size="10.00">time_type</text>
</a>
</g>
</g>
<!-- Node3&#45;&gt;Node1 -->
<g id="edge2" class="edge">
<title>Node3&#45;&gt;Node1</title>
<path fill="none" stroke="#9a32cd" stroke-dasharray="5,2" d="M358.89,-202.83C400.71,-197.54 466.43,-188.74 523,-179 532.37,-177.39 542.37,-175.48 551.88,-173.56"/>
<polygon fill="#9a32cd" stroke="#9a32cd" points="358.27,-199.38 348.79,-204.09 359.15,-206.32 358.27,-199.38"/>
<text text-anchor="middle" x="472" y="-197" font-family="Helvetica,sans-Serif" font-size="10.00"> current_model_time</text>
</g>
<!-- Node4 -->
<g id="node4" class="node">
<title>Node4</title>
<g id="a_node4"><a xlink:title=" ">
<polygon fill="white" stroke="#bfbfbf" points="31,-220.5 31,-239.5 82,-239.5 82,-220.5 31,-220.5"/>
<text text-anchor="middle" x="56.5" y="-227.5" font-family="Helvetica,sans-Serif" font-size="10.00">integer</text>
</a>
</g>
</g>
<!-- Node4&#45;&gt;Node1 -->
<g id="edge9" class="edge">
<title>Node4&#45;&gt;Node1</title>
<path fill="none" stroke="#9a32cd" stroke-dasharray="5,2" d="M92.46,-235.74C104.62,-237.47 118.38,-239.15 131,-240 166.03,-242.37 174.91,-241.18 210,-240 349.71,-235.3 391.64,-256.82 523,-209 546.34,-200.5 570.31,-184.1 584.29,-173.62"/>
<polygon fill="#9a32cd" stroke="#9a32cd" points="92.66,-232.23 82.25,-234.22 91.62,-239.15 92.66,-232.23"/>
<text text-anchor="middle" x="315.5" y="-265" font-family="Helvetica,sans-Serif" font-size="10.00"> registered_axis</text>
<text text-anchor="middle" x="315.5" y="-254" font-family="Helvetica,sans-Serif" font-size="10.00">registered_buffers</text>
<text text-anchor="middle" x="315.5" y="-243" font-family="Helvetica,sans-Serif" font-size="10.00">registered_variables</text>
</g>
<!-- Node4&#45;&gt;Node3 -->
<g id="edge3" class="edge">
<title>Node4&#45;&gt;Node3</title>
<path fill="none" stroke="#9a32cd" stroke-dasharray="5,2" d="M91.02,-217.16C103.39,-213.05 117.65,-209.04 131,-207 183.59,-198.96 245.66,-201.84 282.45,-204.81"/>
<polygon fill="#9a32cd" stroke="#9a32cd" points="89.86,-213.86 81.56,-220.44 92.16,-220.47 89.86,-213.86"/>
<text text-anchor="middle" x="170.5" y="-232" font-family="Helvetica,sans-Serif" font-size="10.00"> days</text>
<text text-anchor="middle" x="170.5" y="-221" font-family="Helvetica,sans-Serif" font-size="10.00">seconds</text>
<text text-anchor="middle" x="170.5" y="-210" font-family="Helvetica,sans-Serif" font-size="10.00">ticks</text>
</g>
<!-- Node5 -->
<g id="node5" class="node">
<title>Node5</title>
<g id="a_node5"><a xlink:title=" ">
<polygon fill="white" stroke="#bfbfbf" points="228,-149 228,-179 403,-179 403,-149 228,-149"/>
<text text-anchor="start" x="236" y="-167" font-family="Helvetica,sans-Serif" font-size="10.00">class(fmsdiagfilecontainer</text>
<text text-anchor="middle" x="315.5" y="-156" font-family="Helvetica,sans-Serif" font-size="10.00">_type), dimension(:), allocatable</text>
</a>
</g>
</g>
<!-- Node5&#45;&gt;Node1 -->
<g id="edge4" class="edge">
<title>Node5&#45;&gt;Node1</title>
<path fill="none" stroke="#9a32cd" stroke-dasharray="5,2" d="M413.29,-164C455.83,-164 504.28,-164 540.67,-164"/>
<polygon fill="#9a32cd" stroke="#9a32cd" points="413.18,-160.5 403.18,-164 413.18,-167.5 413.18,-160.5"/>
<text text-anchor="middle" x="472" y="-167" font-family="Helvetica,sans-Serif" font-size="10.00"> fms_diag_files</text>
</g>
<!-- Node6 -->
<g id="node6" class="node">
<title>Node6</title>
<g id="a_node6"><a xlink:href="structfms__diag__buffer__mod_1_1fmsdiagbuffercontainer__type.html" target="_top" xlink:title="holds an allocated buffer0&#45;5d object">
<polygon fill="white" stroke="black" points="236.5,-110.5 236.5,-129.5 394.5,-129.5 394.5,-110.5 236.5,-110.5"/>
<text text-anchor="middle" x="315.5" y="-117.5" font-family="Helvetica,sans-Serif" font-size="10.00">fmsdiagbuffercontainer_type</text>
</a>
</g>
</g>
<!-- Node6&#45;&gt;Node1 -->
<g id="edge5" class="edge">
<title>Node6&#45;&gt;Node1</title>
<path fill="none" stroke="#9a32cd" stroke-dasharray="5,2" d="M402.94,-130.93C439.99,-135.93 483.7,-142.24 523,-149 532.37,-150.61 542.37,-152.52 551.88,-154.44"/>
<polygon fill="#9a32cd" stroke="#9a32cd" points="403.06,-127.41 392.68,-129.55 402.13,-134.35 403.06,-127.41"/>
<text text-anchor="middle" x="472" y="-152" font-family="Helvetica,sans-Serif" font-size="10.00"> fms_diag_buffers</text>
</g>
<!-- Node7 -->
<g id="node7" class="node">
<title>Node7</title>
<g id="a_node7"><a xlink:title=" ">
<polygon fill="white" stroke="#bfbfbf" points="0,-105 0,-135 113,-135 113,-105 0,-105"/>
<text text-anchor="start" x="8" y="-123" font-family="Helvetica,sans-Serif" font-size="10.00">class(fmsdiagbuffer</text>
<text text-anchor="middle" x="56.5" y="-112" font-family="Helvetica,sans-Serif" font-size="10.00">_class), allocatable</text>
</a>
</g>
</g>
<!-- Node7&#45;&gt;Node6 -->
<g id="edge6" class="edge">
<title>Node7&#45;&gt;Node6</title>
<path fill="none" stroke="#9a32cd" stroke-dasharray="5,2" d="M123.68,-120C158.11,-120 200.4,-120 236.42,-120"/>
<polygon fill="#9a32cd" stroke="#9a32cd" points="123.27,-116.5 113.27,-120 123.27,-123.5 123.27,-116.5"/>
<text text-anchor="middle" x="170.5" y="-123" font-family="Helvetica,sans-Serif" font-size="10.00"> diag_buffer_obj</text>
</g>
<!-- Node8 -->
<g id="node8" class="node">
<title>Node8</title>
<g id="a_node8"><a xlink:title=" ">
<polygon fill="white" stroke="#bfbfbf" points="228,-61 228,-91 403,-91 403,-61 228,-61"/>
<text text-anchor="start" x="236" y="-79" font-family="Helvetica,sans-Serif" font-size="10.00">class(fmsdiagaxiscontainer</text>
<text text-anchor="middle" x="315.5" y="-68" font-family="Helvetica,sans-Serif" font-size="10.00">_type), dimension(:), allocatable</text>
</a>
</g>
</g>
<!-- Node8&#45;&gt;Node1 -->
<g id="edge7" class="edge">
<title>Node8&#45;&gt;Node1</title>
<path fill="none" stroke="#9a32cd" stroke-dasharray="5,2" d="M413,-88.26C448.41,-94.66 488.29,-104.14 523,-118 546.21,-127.27 570.22,-143.86 584.24,-154.38"/>
<polygon fill="#9a32cd" stroke="#9a32cd" points="413.59,-84.81 403.14,-86.54 412.39,-91.7 413.59,-84.81"/>
<text text-anchor="middle" x="472" y="-121" font-family="Helvetica,sans-Serif" font-size="10.00"> diag_axis</text>
</g>
<!-- Node9 -->
<g id="node9" class="node">
<title>Node9</title>
<g id="a_node9"><a xlink:title=" ">
<polygon fill="white" stroke="#bfbfbf" points="258,-0.5 258,-41.5 373,-41.5 373,-0.5 258,-0.5"/>
<text text-anchor="start" x="266" y="-29.5" font-family="Helvetica,sans-Serif" font-size="10.00">class(fmsdiagfield</text>
<text text-anchor="start" x="266" y="-18.5" font-family="Helvetica,sans-Serif" font-size="10.00">_type), dimension(:)</text>
<text text-anchor="middle" x="315.5" y="-7.5" font-family="Helvetica,sans-Serif" font-size="10.00">, allocatable</text>
</a>
</g>
</g>
<!-- Node9&#45;&gt;Node1 -->
<g id="edge8" class="edge">
<title>Node9&#45;&gt;Node1</title>
<path fill="none" stroke="#9a32cd" stroke-dasharray="5,2" d="M383.31,-27.79C425.96,-34.6 480.93,-48.14 523,-75 555.6,-95.81 580.82,-135.83 591.26,-154.26"/>
<polygon fill="#9a32cd" stroke="#9a32cd" points="383.72,-24.31 373.31,-26.28 382.67,-31.24 383.72,-24.31"/>
<text text-anchor="middle" x="472" y="-78" font-family="Helvetica,sans-Serif" font-size="10.00"> fms_diag_fields</text>
</g>
</g>
</svg>
