<?xml version="1.0" encoding="UTF-8" standalone="no"?>
<!DOCTYPE svg PUBLIC "-//W3C//DTD SVG 1.1//EN"
 "http://www.w3.org/Graphics/SVG/1.1/DTD/svg11.dtd">
<!-- Generated by graphviz version 2.43.0 (0)
 -->
<!-- Title: fmsdiagbuffer_class Pages: 1 -->
<svg width="371pt" height="128pt"
 viewBox="0.00 0.00 370.50 128.00" xmlns="http://www.w3.org/2000/svg" xmlns:xlink="http://www.w3.org/1999/xlink">
<g id="graph0" class="graph" transform="scale(1 1) rotate(0) translate(4 124)">
<title>fmsdiagbuffer_class</title>
<polygon fill="white" stroke="transparent" points="-4,4 -4,-124 366.5,-124 366.5,4 -4,4"/>
<!-- Node1 -->
<g id="node1" class="node">
<title>Node1</title>
<g id="a_node1"><a xlink:title="Object that holds buffered data and other diagnostics Abstract to ensure use through its extensions(b...">
<polygon fill="#bfbfbf" stroke="black" points="151,-0.5 151,-19.5 266,-19.5 266,-0.5 151,-0.5"/>
<text text-anchor="middle" x="208.5" y="-7.5" font-family="Helvetica,sans-Serif" font-size="10.00">fmsdiagbuffer_class</text>
</a>
</g>
</g>
<!-- Node2 -->
<g id="node2" class="node">
<title>Node2</title>
<g id="a_node2"><a xlink:title=" ">
<polygon fill="white" stroke="#bfbfbf" points="0,-95 0,-114 129,-114 129,-95 0,-95"/>
<text text-anchor="middle" x="64.5" y="-102" font-family="Helvetica,sans-Serif" font-size="10.00">integer(i4_kind), public</text>
</a>
</g>
</g>
<!-- Node2&#45;&gt;Node1 -->
<g id="edge1" class="edge">
<title>Node2&#45;&gt;Node1</title>
<path fill="none" stroke="#9a32cd" stroke-dasharray="5,2" d="M81.09,-87.79C96.78,-73.5 121.45,-52.49 145.5,-38 157.73,-30.63 172.34,-24.24 184.41,-19.52"/>
<polygon fill="#9a32cd" stroke="#9a32cd" points="78.31,-85.58 73.35,-94.95 83.07,-90.72 78.31,-85.58"/>
<text text-anchor="middle" x="175" y="-52" font-family="Helvetica,sans-Serif" font-size="10.00"> buffer_type</text>
</g>
<!-- Node3 -->
<g id="node3" class="node">
<title>Node3</title>
<g id="a_node3"><a xlink:title=" ">
<polygon fill="white" stroke="#bfbfbf" points="147.5,-89.5 147.5,-119.5 269.5,-119.5 269.5,-89.5 147.5,-89.5"/>
<text text-anchor="start" x="155.5" y="-107.5" font-family="Helvetica,sans-Serif" font-size="10.00">class(*), dimension</text>
<text text-anchor="middle" x="208.5" y="-96.5" font-family="Helvetica,sans-Serif" font-size="10.00">(:), allocatable, public</text>
</a>
</g>
</g>
<!-- Node3&#45;&gt;Node1 -->
<g id="edge2" class="edge">
<title>Node3&#45;&gt;Node1</title>
<path fill="none" stroke="#9a32cd" stroke-dasharray="5,2" d="M208.5,-79.38C208.5,-59.74 208.5,-33.12 208.5,-19.62"/>
<polygon fill="#9a32cd" stroke="#9a32cd" points="205,-79.45 208.5,-89.45 212,-79.45 205,-79.45"/>
<text text-anchor="middle" x="232.5" y="-52" font-family="Helvetica,sans-Serif" font-size="10.00"> count_0d</text>
</g>
<!-- Node4 -->
<g id="node4" class="node">
<title>Node4</title>
<g id="a_node4"><a xlink:title=" ">
<polygon fill="white" stroke="#bfbfbf" points="288,-95 288,-114 339,-114 339,-95 288,-95"/>
<text text-anchor="middle" x="313.5" y="-102" font-family="Helvetica,sans-Serif" font-size="10.00">integer</text>
</a>
</g>
</g>
<!-- Node4&#45;&gt;Node1 -->
<g id="edge3" class="edge">
<title>Node4&#45;&gt;Node1</title>
<path fill="none" stroke="#9a32cd" stroke-dasharray="5,2" d="M302.69,-86.51C292.96,-72.23 277.6,-51.96 260.5,-38 251.28,-30.47 239.63,-24.19 229.69,-19.58"/>
<polygon fill="#9a32cd" stroke="#9a32cd" points="299.8,-88.49 308.23,-94.91 305.64,-84.64 299.8,-88.49"/>
<text text-anchor="middle" x="326" y="-63" font-family="Helvetica,sans-Serif" font-size="10.00"> buffer_dims</text>
<text text-anchor="middle" x="326" y="-52" font-family="Helvetica,sans-Serif" font-size="10.00">buffer_id</text>
<text text-anchor="middle" x="326" y="-41" font-family="Helvetica,sans-Serif" font-size="10.00">num_elements</text>
</g>
</g>
</svg>
