<?xml version="1.0" encoding="UTF-8" standalone="no"?>
<!DOCTYPE svg PUBLIC "-//W3C//DTD SVG 1.1//EN"
 "http://www.w3.org/Graphics/SVG/1.1/DTD/svg11.dtd">
<!-- Generated by graphviz version 2.43.0 (0)
 -->
<!-- Title: varlist_type Pages: 1 -->
<svg width="347pt" height="106pt"
 viewBox="0.00 0.00 346.50 106.00" xmlns="http://www.w3.org/2000/svg" xmlns:xlink="http://www.w3.org/1999/xlink">
<g id="graph0" class="graph" transform="scale(1 1) rotate(0) translate(4 102)">
<title>varlist_type</title>
<polygon fill="white" stroke="transparent" points="-4,4 -4,-102 342.5,-102 342.5,4 -4,4"/>
<!-- Node1 -->
<g id="node1" class="node">
<title>Node1</title>
<g id="a_node1"><a xlink:title="type to hold an array of sorted diag_fiels">
<polygon fill="#bfbfbf" stroke="black" points="142.5,-0.5 142.5,-19.5 216.5,-19.5 216.5,-0.5 142.5,-0.5"/>
<text text-anchor="middle" x="179.5" y="-7.5" font-family="Helvetica,sans-Serif" font-size="10.00">varlist_type</text>
</a>
</g>
</g>
<!-- Node2 -->
<g id="node2" class="node">
<title>Node2</title>
<g id="a_node2"><a xlink:title=" ">
<polygon fill="white" stroke="#bfbfbf" points="0,-67.5 0,-97.5 141,-97.5 141,-67.5 0,-67.5"/>
<text text-anchor="start" x="8" y="-85.5" font-family="Helvetica,sans-Serif" font-size="10.00">character(len=255),</text>
<text text-anchor="middle" x="70.5" y="-74.5" font-family="Helvetica,sans-Serif" font-size="10.00"> dimension(:), allocatable</text>
</a>
</g>
</g>
<!-- Node2&#45;&gt;Node1 -->
<g id="edge1" class="edge">
<title>Node2&#45;&gt;Node1</title>
<path fill="none" stroke="#9a32cd" stroke-dasharray="5,2" d="M93.7,-60.44C102.65,-52.86 113.21,-44.57 123.5,-38 134.69,-30.86 148.05,-24.34 158.92,-19.51"/>
<polygon fill="#9a32cd" stroke="#9a32cd" points="91.24,-57.93 85.98,-67.13 95.83,-63.22 91.24,-57.93"/>
<text text-anchor="middle" x="149.5" y="-41" font-family="Helvetica,sans-Serif" font-size="10.00"> var_name</text>
</g>
<!-- Node3 -->
<g id="node3" class="node">
<title>Node3</title>
<g id="a_node3"><a xlink:title=" ">
<polygon fill="white" stroke="#bfbfbf" points="159,-73 159,-92 200,-92 200,-73 159,-73"/>
<text text-anchor="middle" x="179.5" y="-80" font-family="Helvetica,sans-Serif" font-size="10.00">c_ptr</text>
</a>
</g>
</g>
<!-- Node3&#45;&gt;Node1 -->
<g id="edge2" class="edge">
<title>Node3&#45;&gt;Node1</title>
<path fill="none" stroke="#9a32cd" stroke-dasharray="5,2" d="M179.5,-62.44C179.5,-48.53 179.5,-30.32 179.5,-19.72"/>
<polygon fill="#9a32cd" stroke="#9a32cd" points="176,-62.86 179.5,-72.86 183,-62.86 176,-62.86"/>
<text text-anchor="middle" x="209" y="-41" font-family="Helvetica,sans-Serif" font-size="10.00"> var_pointer</text>
</g>
<!-- Node4 -->
<g id="node4" class="node">
<title>Node4</title>
<g id="a_node4"><a xlink:title=" ">
<polygon fill="white" stroke="#bfbfbf" points="236,-73 236,-92 287,-92 287,-73 236,-73"/>
<text text-anchor="middle" x="261.5" y="-80" font-family="Helvetica,sans-Serif" font-size="10.00">integer</text>
</a>
</g>
</g>
<!-- Node4&#45;&gt;Node1 -->
<g id="edge3" class="edge">
<title>Node4&#45;&gt;Node1</title>
<path fill="none" stroke="#9a32cd" stroke-dasharray="5,2" d="M255.51,-63.22C251.96,-54.68 246.72,-44.9 239.5,-38 230.91,-29.79 219.4,-23.8 208.76,-19.57"/>
<polygon fill="#9a32cd" stroke="#9a32cd" points="252.28,-64.58 259.02,-72.75 258.85,-62.16 252.28,-64.58"/>
<text text-anchor="middle" x="293" y="-41" font-family="Helvetica,sans-Serif" font-size="10.00"> diag_field_indices</text>
</g>
</g>
</svg>
