<?xml version="1.0" encoding="UTF-8" standalone="no"?>
<!DOCTYPE svg PUBLIC "-//W3C//DTD SVG 1.1//EN"
 "http://www.w3.org/Graphics/SVG/1.1/DTD/svg11.dtd">
<!-- Generated by graphviz version 2.43.0 (0)
 -->
<!-- Title: subregion_type Pages: 1 -->
<svg width="200pt" height="117pt"
 viewBox="0.00 0.00 199.50 117.00" xmlns="http://www.w3.org/2000/svg" xmlns:xlink="http://www.w3.org/1999/xlink">
<g id="graph0" class="graph" transform="scale(1 1) rotate(0) translate(4 113)">
<title>subregion_type</title>
<polygon fill="white" stroke="transparent" points="-4,4 -4,-113 195.5,-113 195.5,4 -4,4"/>
<!-- Node1 -->
<g id="node1" class="node">
<title>Node1</title>
<g id="a_node1"><a xlink:title="type to hold the sub region information about a file">
<polygon fill="#bfbfbf" stroke="black" points="58.5,-0.5 58.5,-19.5 150.5,-19.5 150.5,-0.5 58.5,-0.5"/>
<text text-anchor="middle" x="104.5" y="-7.5" font-family="Helvetica,sans-Serif" font-size="10.00">subregion_type</text>
</a>
</g>
</g>
<!-- Node2 -->
<g id="node2" class="node">
<title>Node2</title>
<g id="a_node2"><a xlink:title=" ">
<polygon fill="white" stroke="#bfbfbf" points="0,-78.5 0,-108.5 111,-108.5 111,-78.5 0,-78.5"/>
<text text-anchor="start" x="8" y="-96.5" font-family="Helvetica,sans-Serif" font-size="10.00">class(*), dimension</text>
<text text-anchor="middle" x="55.5" y="-85.5" font-family="Helvetica,sans-Serif" font-size="10.00">(:,:), allocatable</text>
</a>
</g>
</g>
<!-- Node2&#45;&gt;Node1 -->
<g id="edge1" class="edge">
<title>Node2&#45;&gt;Node1</title>
<path fill="none" stroke="#9a32cd" stroke-dasharray="5,2" d="M69.24,-69.65C79.26,-52.98 92.29,-31.32 99.37,-19.54"/>
<polygon fill="#9a32cd" stroke="#9a32cd" points="66.19,-67.93 64.04,-78.3 72.19,-71.54 66.19,-67.93"/>
<text text-anchor="middle" x="107.5" y="-46.5" font-family="Helvetica,sans-Serif" font-size="10.00"> corners</text>
</g>
<!-- Node3 -->
<g id="node3" class="node">
<title>Node3</title>
<g id="a_node3"><a xlink:title=" ">
<polygon fill="white" stroke="#bfbfbf" points="129,-84 129,-103 180,-103 180,-84 129,-84"/>
<text text-anchor="middle" x="154.5" y="-91" font-family="Helvetica,sans-Serif" font-size="10.00">integer</text>
</a>
</g>
</g>
<!-- Node3&#45;&gt;Node1 -->
<g id="edge2" class="edge">
<title>Node3&#45;&gt;Node1</title>
<path fill="none" stroke="#9a32cd" stroke-dasharray="5,2" d="M148.73,-74.06C144.81,-63.06 138.98,-49.12 131.5,-38 126.91,-31.18 120.43,-24.63 114.97,-19.69"/>
<polygon fill="#9a32cd" stroke="#9a32cd" points="145.52,-75.49 152,-83.87 152.16,-73.28 145.52,-75.49"/>
<text text-anchor="middle" x="167" y="-52" font-family="Helvetica,sans-Serif" font-size="10.00"> grid_type</text>
<text text-anchor="middle" x="167" y="-41" font-family="Helvetica,sans-Serif" font-size="10.00">tile</text>
</g>
</g>
</svg>
