<?xml version="1.0" encoding="UTF-8" standalone="no"?>
<!DOCTYPE svg PUBLIC "-//W3C//DTD SVG 1.1//EN"
 "http://www.w3.org/Graphics/SVG/1.1/DTD/svg11.dtd">
<!-- Generated by graphviz version 2.43.0 (0)
 -->
<!-- Title: fmsdiagbuffercontainer_type Pages: 1 -->
<svg width="166pt" height="106pt"
 viewBox="0.00 0.00 166.00 106.00" xmlns="http://www.w3.org/2000/svg" xmlns:xlink="http://www.w3.org/1999/xlink">
<g id="graph0" class="graph" transform="scale(1 1) rotate(0) translate(4 102)">
<title>fmsdiagbuffercontainer_type</title>
<polygon fill="white" stroke="transparent" points="-4,4 -4,-102 162,-102 162,4 -4,4"/>
<!-- Node1 -->
<g id="node1" class="node">
<title>Node1</title>
<g id="a_node1"><a xlink:title="holds an allocated buffer0&#45;5d object">
<polygon fill="#bfbfbf" stroke="black" points="0,-0.5 0,-19.5 158,-19.5 158,-0.5 0,-0.5"/>
<text text-anchor="middle" x="79" y="-7.5" font-family="Helvetica,sans-Serif" font-size="10.00">fmsdiagbuffercontainer_type</text>
</a>
</g>
</g>
<!-- Node2 -->
<g id="node2" class="node">
<title>Node2</title>
<g id="a_node2"><a xlink:title=" ">
<polygon fill="white" stroke="#bfbfbf" points="22.5,-67.5 22.5,-97.5 135.5,-97.5 135.5,-67.5 22.5,-67.5"/>
<text text-anchor="start" x="30.5" y="-85.5" font-family="Helvetica,sans-Serif" font-size="10.00">class(fmsdiagbuffer</text>
<text text-anchor="middle" x="79" y="-74.5" font-family="Helvetica,sans-Serif" font-size="10.00">_class), allocatable</text>
</a>
</g>
</g>
<!-- Node2&#45;&gt;Node1 -->
<g id="edge1" class="edge">
<title>Node2&#45;&gt;Node1</title>
<path fill="none" stroke="#9a32cd" stroke-dasharray="5,2" d="M79,-57.09C79,-44.21 79,-29.2 79,-19.89"/>
<polygon fill="#9a32cd" stroke="#9a32cd" points="75.5,-57.23 79,-67.23 82.5,-57.23 75.5,-57.23"/>
<text text-anchor="middle" x="118.5" y="-41" font-family="Helvetica,sans-Serif" font-size="10.00"> diag_buffer_obj</text>
</g>
</g>
</svg>
