<?xml version="1.0" encoding="UTF-8" standalone="no"?>
<!DOCTYPE svg PUBLIC "-//W3C//DTD SVG 1.1//EN"
 "http://www.w3.org/Graphics/SVG/1.1/DTD/svg11.dtd">
<!-- Generated by graphviz version 2.43.0 (0)
 -->
<!-- Title: fmsdlliterator_t Pages: 1 -->
<svg width="145pt" height="175pt"
 viewBox="0.00 0.00 144.50 175.00" xmlns="http://www.w3.org/2000/svg" xmlns:xlink="http://www.w3.org/1999/xlink">
<g id="graph0" class="graph" transform="scale(1 1) rotate(0) translate(4 171)">
<title>fmsdlliterator_t</title>
<polygon fill="white" stroke="transparent" points="-4,4 -4,-171 140.5,-171 140.5,4 -4,4"/>
<!-- Node1 -->
<g id="node1" class="node">
<title>Node1</title>
<g id="a_node1"><a xlink:title="Linked list iterator.">
<polygon fill="#bfbfbf" stroke="black" points="1.5,-0.5 1.5,-19.5 93.5,-19.5 93.5,-0.5 1.5,-0.5"/>
<text text-anchor="middle" x="47.5" y="-7.5" font-family="Helvetica,sans-Serif" font-size="10.00">fmsdlliterator_t</text>
</a>
</g>
</g>
<!-- Node2 -->
<g id="node2" class="node">
<title>Node2</title>
<g id="a_node2"><a xlink:href="structfms__diag__dlinked__list__mod_1_1fmsdllistnode__t.html" target="_top" xlink:title="The doubly&#45;linked list node type.">
<polygon fill="white" stroke="black" points="1.5,-79.5 1.5,-98.5 93.5,-98.5 93.5,-79.5 1.5,-79.5"/>
<text text-anchor="middle" x="47.5" y="-86.5" font-family="Helvetica,sans-Serif" font-size="10.00">fmsdllistnode_t</text>
</a>
</g>
</g>
<!-- Node2&#45;&gt;Node1 -->
<g id="edge1" class="edge">
<title>Node2&#45;&gt;Node1</title>
<path fill="none" stroke="#9a32cd" stroke-dasharray="5,2" d="M47.5,-69.31C47.5,-53.59 47.5,-31.81 47.5,-19.81"/>
<polygon fill="#9a32cd" stroke="#9a32cd" points="44,-69.47 47.5,-79.47 51,-69.47 44,-69.47"/>
<text text-anchor="middle" x="66.5" y="-52" font-family="Helvetica,sans-Serif" font-size="10.00"> current</text>
<text text-anchor="middle" x="66.5" y="-41" font-family="Helvetica,sans-Serif" font-size="10.00">end</text>
</g>
<!-- Node2&#45;&gt;Node2 -->
<g id="edge3" class="edge">
<title>Node2&#45;&gt;Node2</title>
<path fill="none" stroke="#9a32cd" stroke-dasharray="5,2" d="M103.77,-93.95C108.53,-92.89 111.5,-91.24 111.5,-89 111.5,-85.41 103.91,-83.34 93.52,-82.78"/>
<polygon fill="#9a32cd" stroke="#9a32cd" points="103.02,-90.52 93.52,-95.22 103.88,-97.46 103.02,-90.52"/>
<text text-anchor="middle" x="124" y="-92" font-family="Helvetica,sans-Serif" font-size="10.00"> next</text>
<text text-anchor="middle" x="124" y="-81" font-family="Helvetica,sans-Serif" font-size="10.00">prev</text>
</g>
<!-- Node3 -->
<g id="node3" class="node">
<title>Node3</title>
<g id="a_node3"><a xlink:title=" ">
<polygon fill="white" stroke="#bfbfbf" points="0,-147.5 0,-166.5 95,-166.5 95,-147.5 0,-147.5"/>
<text text-anchor="middle" x="47.5" y="-154.5" font-family="Helvetica,sans-Serif" font-size="10.00">class(*), pointer</text>
</a>
</g>
</g>
<!-- Node3&#45;&gt;Node2 -->
<g id="edge2" class="edge">
<title>Node3&#45;&gt;Node2</title>
<path fill="none" stroke="#9a32cd" stroke-dasharray="5,2" d="M47.5,-137.04C47.5,-124.47 47.5,-108.56 47.5,-98.84"/>
<polygon fill="#9a32cd" stroke="#9a32cd" points="44,-137.37 47.5,-147.37 51,-137.37 44,-137.37"/>
<text text-anchor="middle" x="69.5" y="-121" font-family="Helvetica,sans-Serif" font-size="10.00"> data_ptr</text>
</g>
</g>
</svg>
