<?xml version="1.0" encoding="UTF-8" standalone="no"?>
<!DOCTYPE svg PUBLIC "-//W3C//DTD SVG 1.1//EN"
 "http://www.w3.org/Graphics/SVG/1.1/DTD/svg11.dtd">
<!-- Generated by graphviz version 2.43.0 (0)
 -->
<!-- Title: diagyamlobject_type Pages: 1 -->
<svg width="820pt" height="533pt"
 viewBox="0.00 0.00 820.00 533.00" xmlns="http://www.w3.org/2000/svg" xmlns:xlink="http://www.w3.org/1999/xlink">
<g id="graph0" class="graph" transform="scale(1 1) rotate(0) translate(4 529)">
<title>diagyamlobject_type</title>
<polygon fill="white" stroke="transparent" points="-4,4 -4,-529 816,-529 816,4 -4,4"/>
<!-- Node1 -->
<g id="node1" class="node">
<title>Node1</title>
<g id="a_node1"><a xlink:title="Object that holds the information of the diag_yaml.">
<polygon fill="#bfbfbf" stroke="black" points="693,-332 693,-351 812,-351 812,-332 693,-332"/>
<text text-anchor="middle" x="752.5" y="-339" font-family="Helvetica,sans-Serif" font-size="10.00">diagyamlobject_type</text>
</a>
</g>
</g>
<!-- Node2 -->
<g id="node2" class="node">
<title>Node2</title>
<g id="a_node2"><a xlink:title=" ">
<polygon fill="white" stroke="#bfbfbf" points="196,-494.5 196,-524.5 355,-524.5 355,-494.5 196,-494.5"/>
<text text-anchor="start" x="204" y="-512.5" font-family="Helvetica,sans-Serif" font-size="10.00">character(len=:), allocatable,</text>
<text text-anchor="middle" x="275.5" y="-501.5" font-family="Helvetica,sans-Serif" font-size="10.00"> private</text>
</a>
</g>
</g>
<!-- Node2&#45;&gt;Node1 -->
<g id="edge1" class="edge">
<title>Node2&#45;&gt;Node1</title>
<path fill="none" stroke="#9a32cd" stroke-dasharray="5,2" d="M365.8,-516.08C395.57,-516.03 428.62,-513.5 458,-505.5 577.96,-472.84 701.48,-381 739.59,-351.06"/>
<polygon fill="#9a32cd" stroke="#9a32cd" points="365.44,-512.58 355.41,-516 365.39,-519.58 365.44,-512.58"/>
<text text-anchor="middle" x="538.5" y="-502.5" font-family="Helvetica,sans-Serif" font-size="10.00"> diag_title</text>
</g>
<!-- Node3 -->
<g id="node3" class="node">
<title>Node3</title>
<g id="a_node3"><a xlink:href="structfms__diag__yaml__mod_1_1diagyamlfilesvar__type.html" target="_top" xlink:title="type to hold the info a diag_field">
<polygon fill="white" stroke="black" points="476,-362 476,-381 601,-381 601,-362 476,-362"/>
<text text-anchor="middle" x="538.5" y="-369" font-family="Helvetica,sans-Serif" font-size="10.00">diagyamlfilesvar_type</text>
</a>
</g>
</g>
<!-- Node2&#45;&gt;Node3 -->
<g id="edge3" class="edge">
<title>Node2&#45;&gt;Node3</title>
<path fill="none" stroke="#9a32cd" stroke-dasharray="5,2" d="M333.11,-489.94C341.03,-485.64 348.62,-480.53 355,-474.5 367.71,-462.48 359.4,-450.5 373,-439.5 403.43,-414.89 421.8,-431.37 458,-416.5 481.91,-406.68 507.6,-391.12 523.12,-381.11"/>
<polygon fill="#9a32cd" stroke="#9a32cd" points="331.47,-486.84 324.09,-494.44 334.6,-493.1 331.47,-486.84"/>
<text text-anchor="middle" x="415.5" y="-497.5" font-family="Helvetica,sans-Serif" font-size="10.00"> var_fname</text>
<text text-anchor="middle" x="415.5" y="-486.5" font-family="Helvetica,sans-Serif" font-size="10.00">var_longname</text>
<text text-anchor="middle" x="415.5" y="-475.5" font-family="Helvetica,sans-Serif" font-size="10.00">var_module</text>
<text text-anchor="middle" x="415.5" y="-464.5" font-family="Helvetica,sans-Serif" font-size="10.00">var_outname</text>
<text text-anchor="middle" x="415.5" y="-453.5" font-family="Helvetica,sans-Serif" font-size="10.00">var_units</text>
<text text-anchor="middle" x="415.5" y="-442.5" font-family="Helvetica,sans-Serif" font-size="10.00">var_varname</text>
</g>
<!-- Node3&#45;&gt;Node1 -->
<g id="edge2" class="edge">
<title>Node3&#45;&gt;Node1</title>
<path fill="none" stroke="#9a32cd" stroke-dasharray="5,2" d="M611.1,-361.37C637.63,-357.61 667.39,-353.4 692.66,-349.83"/>
<polygon fill="#9a32cd" stroke="#9a32cd" points="610.51,-357.92 601.1,-362.78 611.5,-364.85 610.51,-357.92"/>
<text text-anchor="middle" x="647" y="-362.5" font-family="Helvetica,sans-Serif" font-size="10.00"> diag_fields</text>
</g>
<!-- Node4 -->
<g id="node4" class="node">
<title>Node4</title>
<g id="a_node4"><a xlink:title=" ">
<polygon fill="white" stroke="#bfbfbf" points="199,-264 199,-283 352,-283 352,-264 199,-264"/>
<text text-anchor="middle" x="275.5" y="-271" font-family="Helvetica,sans-Serif" font-size="10.00">character(len=max_str_len)</text>
</a>
</g>
</g>
<!-- Node4&#45;&gt;Node3 -->
<g id="edge4" class="edge">
<title>Node4&#45;&gt;Node3</title>
<path fill="none" stroke="#9a32cd" stroke-dasharray="5,2" d="M301.06,-288.09C320.17,-298.98 347.61,-313.62 373,-323.5 409.47,-337.69 420.44,-335.52 458,-346.5 474.66,-351.37 493.17,-357.17 508.14,-361.96"/>
<polygon fill="#9a32cd" stroke="#9a32cd" points="302.81,-285.06 292.4,-283.09 299.3,-291.12 302.81,-285.06"/>
<text text-anchor="middle" x="415.5" y="-349.5" font-family="Helvetica,sans-Serif" font-size="10.00"> var_attributes</text>
</g>
<!-- Node7 -->
<g id="node7" class="node">
<title>Node7</title>
<g id="a_node7"><a xlink:href="structfms__diag__yaml__mod_1_1diagyamlfiles__type.html" target="_top" xlink:title="type to hold the diag_file information">
<polygon fill="white" stroke="black" points="483.5,-201 483.5,-220 593.5,-220 593.5,-201 483.5,-201"/>
<text text-anchor="middle" x="538.5" y="-208" font-family="Helvetica,sans-Serif" font-size="10.00">diagyamlfiles_type</text>
</a>
</g>
</g>
<!-- Node4&#45;&gt;Node7 -->
<g id="edge11" class="edge">
<title>Node4&#45;&gt;Node7</title>
<path fill="none" stroke="#9a32cd" stroke-dasharray="5,2" d="M362.24,-264.21C392.82,-259.74 427.29,-253.37 458,-244.5 479.49,-238.29 502.89,-227.79 518.71,-220.1"/>
<polygon fill="#9a32cd" stroke="#9a32cd" points="361.44,-260.79 352.03,-265.65 362.42,-267.72 361.44,-260.79"/>
<text text-anchor="middle" x="415.5" y="-275.5" font-family="Helvetica,sans-Serif" font-size="10.00"> file_global_meta</text>
<text text-anchor="middle" x="415.5" y="-264.5" font-family="Helvetica,sans-Serif" font-size="10.00">file_varlist</text>
</g>
<!-- Node5 -->
<g id="node5" class="node">
<title>Node5</title>
<g id="a_node5"><a xlink:title=" ">
<polygon fill="white" stroke="#bfbfbf" points="213,-434.5 213,-464.5 338,-464.5 338,-434.5 213,-434.5"/>
<text text-anchor="start" x="221" y="-452.5" font-family="Helvetica,sans-Serif" font-size="10.00">real(kind=r4_kind),</text>
<text text-anchor="middle" x="275.5" y="-441.5" font-family="Helvetica,sans-Serif" font-size="10.00"> dimension(2), private</text>
</a>
</g>
</g>
<!-- Node5&#45;&gt;Node3 -->
<g id="edge5" class="edge">
<title>Node5&#45;&gt;Node3</title>
<path fill="none" stroke="#9a32cd" stroke-dasharray="5,2" d="M332.27,-430.55C340.08,-427.22 347.86,-423.52 355,-419.5 363.83,-414.53 363.8,-409.75 373,-405.5 391.34,-397.04 437.98,-387.78 476.94,-381.06"/>
<polygon fill="#9a32cd" stroke="#9a32cd" points="330.72,-427.4 322.79,-434.42 333.37,-433.88 330.72,-427.4"/>
<text text-anchor="middle" x="415.5" y="-408.5" font-family="Helvetica,sans-Serif" font-size="10.00"> var_zbounds</text>
</g>
<!-- Node6 -->
<g id="node6" class="node">
<title>Node6</title>
<g id="a_node6"><a xlink:title=" ">
<polygon fill="white" stroke="#bfbfbf" points="30,-189 30,-208 81,-208 81,-189 30,-189"/>
<text text-anchor="middle" x="55.5" y="-196" font-family="Helvetica,sans-Serif" font-size="10.00">integer</text>
</a>
</g>
</g>
<!-- Node6&#45;&gt;Node1 -->
<g id="edge14" class="edge">
<title>Node6&#45;&gt;Node1</title>
<path fill="none" stroke="#9a32cd" stroke-dasharray="5,2" d="M74.19,-215.04C99.14,-237.21 147.11,-275.71 196,-292.5 306.39,-330.41 341.72,-300.37 458,-310.5 539.54,-317.61 633.61,-327.91 692.81,-334.66"/>
<polygon fill="#9a32cd" stroke="#9a32cd" points="76.4,-212.32 66.64,-208.2 71.7,-217.51 76.4,-212.32"/>
<text text-anchor="middle" x="415.5" y="-313.5" font-family="Helvetica,sans-Serif" font-size="10.00"> diag_basedate</text>
</g>
<!-- Node6&#45;&gt;Node3 -->
<g id="edge6" class="edge">
<title>Node6&#45;&gt;Node3</title>
<path fill="none" stroke="#9a32cd" stroke-dasharray="5,2" d="M61.59,-217.85C70.23,-246.55 90.68,-299.78 129,-325.5 184.25,-362.59 375.81,-370.06 475.74,-371.37"/>
<polygon fill="#9a32cd" stroke="#9a32cd" points="64.93,-216.83 58.84,-208.16 58.2,-218.73 64.93,-216.83"/>
<text text-anchor="middle" x="275.5" y="-402.5" font-family="Helvetica,sans-Serif" font-size="10.00"> n_diurnal</text>
<text text-anchor="middle" x="275.5" y="-391.5" font-family="Helvetica,sans-Serif" font-size="10.00">pow_value</text>
<text text-anchor="middle" x="275.5" y="-380.5" font-family="Helvetica,sans-Serif" font-size="10.00">var_kind</text>
<text text-anchor="middle" x="275.5" y="-369.5" font-family="Helvetica,sans-Serif" font-size="10.00">var_reduction</text>
</g>
<!-- Node6&#45;&gt;Node7 -->
<g id="edge13" class="edge">
<title>Node6&#45;&gt;Node7</title>
<path fill="none" stroke="#9a32cd" stroke-dasharray="5,2" d="M72.24,-181.38C96.16,-156.77 144.36,-112.5 196,-95.5 263.12,-73.4 287.11,-75.89 355,-95.5 428.4,-116.7 500.71,-177.14 527.05,-200.82"/>
<polygon fill="#9a32cd" stroke="#9a32cd" points="69.44,-179.24 65.09,-188.9 74.52,-184.06 69.44,-179.24"/>
<text text-anchor="start" x="221" y="-208.5" font-family="Helvetica,sans-Serif" font-size="10.00"> current_new_file_freq</text>
<text text-anchor="middle" x="275.5" y="-197.5" font-family="Helvetica,sans-Serif" font-size="10.00">_index</text>
<text text-anchor="middle" x="275.5" y="-186.5" font-family="Helvetica,sans-Serif" font-size="10.00">file_duration</text>
<text text-anchor="middle" x="275.5" y="-175.5" font-family="Helvetica,sans-Serif" font-size="10.00">file_duration_units</text>
<text text-anchor="middle" x="275.5" y="-164.5" font-family="Helvetica,sans-Serif" font-size="10.00">file_freq</text>
<text text-anchor="middle" x="275.5" y="-153.5" font-family="Helvetica,sans-Serif" font-size="10.00">file_frequnit</text>
<text text-anchor="middle" x="275.5" y="-142.5" font-family="Helvetica,sans-Serif" font-size="10.00">file_new_file_freq</text>
<text text-anchor="start" x="221" y="-131.5" font-family="Helvetica,sans-Serif" font-size="10.00">file_new_file_freq</text>
<text text-anchor="middle" x="275.5" y="-120.5" font-family="Helvetica,sans-Serif" font-size="10.00">_units</text>
<text text-anchor="middle" x="275.5" y="-109.5" font-family="Helvetica,sans-Serif" font-size="10.00">file_timeunit</text>
<text text-anchor="middle" x="275.5" y="-98.5" font-family="Helvetica,sans-Serif" font-size="10.00">filename_time</text>
</g>
<!-- Node8 -->
<g id="node8" class="node">
<title>Node8</title>
<g id="a_node8"><a xlink:href="structfms__diag__yaml__mod_1_1subregion__type.html" target="_top" xlink:title="type to hold the sub region information about a file">
<polygon fill="white" stroke="black" points="229.5,-31 229.5,-50 321.5,-50 321.5,-31 229.5,-31"/>
<text text-anchor="middle" x="275.5" y="-38" font-family="Helvetica,sans-Serif" font-size="10.00">subregion_type</text>
</a>
</g>
</g>
<!-- Node6&#45;&gt;Node8 -->
<g id="edge10" class="edge">
<title>Node6&#45;&gt;Node8</title>
<path fill="none" stroke="#9a32cd" stroke-dasharray="5,2" d="M59.79,-178.52C66.39,-145.53 84.61,-80.35 129,-50.5 158.21,-30.86 198.59,-29.6 229.41,-32.55"/>
<polygon fill="#9a32cd" stroke="#9a32cd" points="56.28,-178.27 57.92,-188.74 63.16,-179.54 56.28,-178.27"/>
<text text-anchor="middle" x="153.5" y="-64.5" font-family="Helvetica,sans-Serif" font-size="10.00"> grid_type</text>
<text text-anchor="middle" x="153.5" y="-53.5" font-family="Helvetica,sans-Serif" font-size="10.00">tile</text>
</g>
<!-- Node7&#45;&gt;Node1 -->
<g id="edge7" class="edge">
<title>Node7&#45;&gt;Node1</title>
<path fill="none" stroke="#9a32cd" stroke-dasharray="5,2" d="M567.42,-224.98C595.2,-239.65 638.78,-263.42 675,-286.5 698.31,-301.35 724.19,-320.57 739.08,-331.91"/>
<polygon fill="#9a32cd" stroke="#9a32cd" points="568.78,-221.74 558.29,-220.18 565.52,-227.93 568.78,-221.74"/>
<text text-anchor="middle" x="647" y="-289.5" font-family="Helvetica,sans-Serif" font-size="10.00"> diag_files</text>
</g>
<!-- Node8&#45;&gt;Node7 -->
<g id="edge8" class="edge">
<title>Node8&#45;&gt;Node7</title>
<path fill="none" stroke="#9a32cd" stroke-dasharray="5,2" d="M331.55,-34.14C370.13,-32.54 421.18,-36.42 458,-61.5 508.65,-96 529.59,-173.48 535.57,-200.77"/>
<polygon fill="#9a32cd" stroke="#9a32cd" points="331.31,-30.65 321.52,-34.69 331.7,-37.64 331.31,-30.65"/>
<text text-anchor="middle" x="415.5" y="-64.5" font-family="Helvetica,sans-Serif" font-size="10.00"> file_sub_region</text>
</g>
<!-- Node9 -->
<g id="node9" class="node">
<title>Node9</title>
<g id="a_node9"><a xlink:title=" ">
<polygon fill="white" stroke="#bfbfbf" points="0,-0.5 0,-30.5 111,-30.5 111,-0.5 0,-0.5"/>
<text text-anchor="start" x="8" y="-18.5" font-family="Helvetica,sans-Serif" font-size="10.00">class(*), dimension</text>
<text text-anchor="middle" x="55.5" y="-7.5" font-family="Helvetica,sans-Serif" font-size="10.00">(:,:), allocatable</text>
</a>
</g>
</g>
<!-- Node9&#45;&gt;Node8 -->
<g id="edge9" class="edge">
<title>Node9&#45;&gt;Node8</title>
<path fill="none" stroke="#9a32cd" stroke-dasharray="5,2" d="M121.16,-13.21C139.59,-13.33 159.64,-14.17 178,-16.5 200.44,-19.34 225.18,-25.56 243.99,-30.95"/>
<polygon fill="#9a32cd" stroke="#9a32cd" points="121.11,-9.71 111.12,-13.22 121.12,-16.71 121.11,-9.71"/>
<text text-anchor="middle" x="153.5" y="-19.5" font-family="Helvetica,sans-Serif" font-size="10.00"> corners</text>
</g>
<!-- Node10 -->
<g id="node10" class="node">
<title>Node10</title>
<g id="a_node10"><a xlink:title=" ">
<polygon fill="white" stroke="#bfbfbf" points="197.5,-226 197.5,-245 353.5,-245 353.5,-226 197.5,-226"/>
<text text-anchor="middle" x="275.5" y="-233" font-family="Helvetica,sans-Serif" font-size="10.00">character(len=:), allocatable</text>
</a>
</g>
</g>
<!-- Node10&#45;&gt;Node7 -->
<g id="edge12" class="edge">
<title>Node10&#45;&gt;Node7</title>
<path fill="none" stroke="#9a32cd" stroke-dasharray="5,2" d="M316.71,-223.23C333.87,-218.59 354.24,-213.86 373,-211.5 409.55,-206.91 451.04,-206.69 483.2,-207.61"/>
<polygon fill="#9a32cd" stroke="#9a32cd" points="315.7,-219.88 307,-225.94 317.58,-226.62 315.7,-219.88"/>
<text text-anchor="middle" x="415.5" y="-236.5" font-family="Helvetica,sans-Serif" font-size="10.00"> file_fname</text>
<text text-anchor="middle" x="415.5" y="-225.5" font-family="Helvetica,sans-Serif" font-size="10.00">file_start_time</text>
<text text-anchor="middle" x="415.5" y="-214.5" font-family="Helvetica,sans-Serif" font-size="10.00">file_unlimdim</text>
</g>
</g>
</svg>
