<?xml version="1.0" encoding="UTF-8" standalone="no"?>
<!DOCTYPE svg PUBLIC "-//W3C//DTD SVG 1.1//EN"
 "http://www.w3.org/Graphics/SVG/1.1/DTD/svg11.dtd">
<!-- Generated by graphviz version 2.43.0 (0)
 -->
<!-- Title: diagyamlfiles_type Pages: 1 -->
<svg width="646pt" height="307pt"
 viewBox="0.00 0.00 645.50 307.00" xmlns="http://www.w3.org/2000/svg" xmlns:xlink="http://www.w3.org/1999/xlink">
<g id="graph0" class="graph" transform="scale(1 1) rotate(0) translate(4 303)">
<title>diagyamlfiles_type</title>
<polygon fill="white" stroke="transparent" points="-4,4 -4,-303 641.5,-303 641.5,4 -4,4"/>
<!-- Node1 -->
<g id="node1" class="node">
<title>Node1</title>
<g id="a_node1"><a xlink:title="type to hold the diag_file information">
<polygon fill="#bfbfbf" stroke="black" points="229.5,-0.5 229.5,-19.5 339.5,-19.5 339.5,-0.5 229.5,-0.5"/>
<text text-anchor="middle" x="284.5" y="-7.5" font-family="Helvetica,sans-Serif" font-size="10.00">diagyamlfiles_type</text>
</a>
</g>
</g>
<!-- Node2 -->
<g id="node2" class="node">
<title>Node2</title>
<g id="a_node2"><a xlink:href="structfms__diag__yaml__mod_1_1subregion__type.html" target="_top" xlink:title="type to hold the sub region information about a file">
<polygon fill="white" stroke="black" points="44.5,-140 44.5,-159 136.5,-159 136.5,-140 44.5,-140"/>
<text text-anchor="middle" x="90.5" y="-147" font-family="Helvetica,sans-Serif" font-size="10.00">subregion_type</text>
</a>
</g>
</g>
<!-- Node2&#45;&gt;Node1 -->
<g id="edge1" class="edge">
<title>Node2&#45;&gt;Node1</title>
<path fill="none" stroke="#9a32cd" stroke-dasharray="5,2" d="M84.11,-129.96C77.03,-105.69 69.33,-63.26 91.5,-38 109.13,-17.91 178.52,-12.34 229.06,-11.01"/>
<polygon fill="#9a32cd" stroke="#9a32cd" points="80.84,-131.24 87.2,-139.71 87.51,-129.12 80.84,-131.24"/>
<text text-anchor="middle" x="130" y="-52" font-family="Helvetica,sans-Serif" font-size="10.00"> file_sub_region</text>
</g>
<!-- Node3 -->
<g id="node3" class="node">
<title>Node3</title>
<g id="a_node3"><a xlink:title=" ">
<polygon fill="white" stroke="#bfbfbf" points="0,-268.5 0,-298.5 111,-298.5 111,-268.5 0,-268.5"/>
<text text-anchor="start" x="8" y="-286.5" font-family="Helvetica,sans-Serif" font-size="10.00">class(*), dimension</text>
<text text-anchor="middle" x="55.5" y="-275.5" font-family="Helvetica,sans-Serif" font-size="10.00">(:,:), allocatable</text>
</a>
</g>
</g>
<!-- Node3&#45;&gt;Node2 -->
<g id="edge2" class="edge">
<title>Node3&#45;&gt;Node2</title>
<path fill="none" stroke="#9a32cd" stroke-dasharray="5,2" d="M53.91,-258.41C53.81,-248.84 54.35,-237.81 56.5,-228 62.29,-201.59 77.32,-173.11 85.32,-159.18"/>
<polygon fill="#9a32cd" stroke="#9a32cd" points="50.42,-258.56 54.26,-268.44 57.41,-258.32 50.42,-258.56"/>
<text text-anchor="middle" x="76.5" y="-236.5" font-family="Helvetica,sans-Serif" font-size="10.00"> corners</text>
</g>
<!-- Node4 -->
<g id="node4" class="node">
<title>Node4</title>
<g id="a_node4"><a xlink:title=" ">
<polygon fill="white" stroke="#bfbfbf" points="143,-274 143,-293 194,-293 194,-274 143,-274"/>
<text text-anchor="middle" x="168.5" y="-281" font-family="Helvetica,sans-Serif" font-size="10.00">integer</text>
</a>
</g>
</g>
<!-- Node4&#45;&gt;Node1 -->
<g id="edge6" class="edge">
<title>Node4&#45;&gt;Node1</title>
<path fill="none" stroke="#9a32cd" stroke-dasharray="5,2" d="M169,-263.43C170.39,-220.74 175.36,-118.85 191.5,-89 209.14,-56.37 246.48,-31.74 268.1,-19.53"/>
<polygon fill="#9a32cd" stroke="#9a32cd" points="165.5,-263.49 168.7,-273.58 172.49,-263.69 165.5,-263.49"/>
<text text-anchor="start" x="191.5" y="-202" font-family="Helvetica,sans-Serif" font-size="10.00"> current_new_file_freq</text>
<text text-anchor="middle" x="246" y="-191" font-family="Helvetica,sans-Serif" font-size="10.00">_index</text>
<text text-anchor="middle" x="246" y="-180" font-family="Helvetica,sans-Serif" font-size="10.00">file_duration</text>
<text text-anchor="middle" x="246" y="-169" font-family="Helvetica,sans-Serif" font-size="10.00">file_duration_units</text>
<text text-anchor="middle" x="246" y="-158" font-family="Helvetica,sans-Serif" font-size="10.00">file_freq</text>
<text text-anchor="middle" x="246" y="-147" font-family="Helvetica,sans-Serif" font-size="10.00">file_frequnit</text>
<text text-anchor="middle" x="246" y="-136" font-family="Helvetica,sans-Serif" font-size="10.00">file_new_file_freq</text>
<text text-anchor="start" x="191.5" y="-125" font-family="Helvetica,sans-Serif" font-size="10.00">file_new_file_freq</text>
<text text-anchor="middle" x="246" y="-114" font-family="Helvetica,sans-Serif" font-size="10.00">_units</text>
<text text-anchor="middle" x="246" y="-103" font-family="Helvetica,sans-Serif" font-size="10.00">file_timeunit</text>
<text text-anchor="middle" x="246" y="-92" font-family="Helvetica,sans-Serif" font-size="10.00">filename_time</text>
</g>
<!-- Node4&#45;&gt;Node2 -->
<g id="edge3" class="edge">
<title>Node4&#45;&gt;Node2</title>
<path fill="none" stroke="#9a32cd" stroke-dasharray="5,2" d="M140.67,-268.81C132.88,-263.83 125.04,-257.53 119.5,-250 98.39,-221.31 92.58,-177.48 91.04,-159.09"/>
<polygon fill="#9a32cd" stroke="#9a32cd" points="138.93,-271.85 149.32,-273.88 142.47,-265.81 138.93,-271.85"/>
<text text-anchor="middle" x="144" y="-242" font-family="Helvetica,sans-Serif" font-size="10.00"> grid_type</text>
<text text-anchor="middle" x="144" y="-231" font-family="Helvetica,sans-Serif" font-size="10.00">tile</text>
</g>
<!-- Node5 -->
<g id="node5" class="node">
<title>Node5</title>
<g id="a_node5"><a xlink:title=" ">
<polygon fill="white" stroke="#bfbfbf" points="310,-140 310,-159 463,-159 463,-140 310,-140"/>
<text text-anchor="middle" x="386.5" y="-147" font-family="Helvetica,sans-Serif" font-size="10.00">character(len=max_str_len)</text>
</a>
</g>
</g>
<!-- Node5&#45;&gt;Node1 -->
<g id="edge4" class="edge">
<title>Node5&#45;&gt;Node1</title>
<path fill="none" stroke="#9a32cd" stroke-dasharray="5,2" d="M374.12,-131.81C352.24,-102.31 307.48,-41.97 290.88,-19.6"/>
<polygon fill="#9a32cd" stroke="#9a32cd" points="371.35,-133.95 380.12,-139.9 376.97,-129.78 371.35,-133.95"/>
<text text-anchor="middle" x="368" y="-57.5" font-family="Helvetica,sans-Serif" font-size="10.00"> file_global_meta</text>
<text text-anchor="middle" x="368" y="-46.5" font-family="Helvetica,sans-Serif" font-size="10.00">file_varlist</text>
</g>
<!-- Node6 -->
<g id="node6" class="node">
<title>Node6</title>
<g id="a_node6"><a xlink:title=" ">
<polygon fill="white" stroke="#bfbfbf" points="481.5,-140 481.5,-159 637.5,-159 637.5,-140 481.5,-140"/>
<text text-anchor="middle" x="559.5" y="-147" font-family="Helvetica,sans-Serif" font-size="10.00">character(len=:), allocatable</text>
</a>
</g>
</g>
<!-- Node6&#45;&gt;Node1 -->
<g id="edge5" class="edge">
<title>Node6&#45;&gt;Node1</title>
<path fill="none" stroke="#9a32cd" stroke-dasharray="5,2" d="M543.82,-132.64C518.81,-108.32 467.28,-62.08 414.5,-38 391.12,-27.33 363.44,-20.84 339.65,-16.9"/>
<polygon fill="#9a32cd" stroke="#9a32cd" points="541.68,-135.45 551.25,-139.99 546.6,-130.47 541.68,-135.45"/>
<text text-anchor="middle" x="505" y="-63" font-family="Helvetica,sans-Serif" font-size="10.00"> file_fname</text>
<text text-anchor="middle" x="505" y="-52" font-family="Helvetica,sans-Serif" font-size="10.00">file_start_time</text>
<text text-anchor="middle" x="505" y="-41" font-family="Helvetica,sans-Serif" font-size="10.00">file_unlimdim</text>
</g>
</g>
</svg>
