<?xml version="1.0" encoding="UTF-8" standalone="no"?>
<!DOCTYPE svg PUBLIC "-//W3C//DTD SVG 1.1//EN"
 "http://www.w3.org/Graphics/SVG/1.1/DTD/svg11.dtd">
<!-- Generated by graphviz version 2.43.0 (0)
 -->
<!-- Title: filelist_type Pages: 1 -->
<svg width="340pt" height="106pt"
 viewBox="0.00 0.00 339.50 106.00" xmlns="http://www.w3.org/2000/svg" xmlns:xlink="http://www.w3.org/1999/xlink">
<g id="graph0" class="graph" transform="scale(1 1) rotate(0) translate(4 102)">
<title>filelist_type</title>
<polygon fill="white" stroke="transparent" points="-4,4 -4,-102 335.5,-102 335.5,4 -4,4"/>
<!-- Node1 -->
<g id="node1" class="node">
<title>Node1</title>
<g id="a_node1"><a xlink:title="type to hold an array of sorted diag_files">
<polygon fill="#bfbfbf" stroke="black" points="142.5,-0.5 142.5,-19.5 216.5,-19.5 216.5,-0.5 142.5,-0.5"/>
<text text-anchor="middle" x="179.5" y="-7.5" font-family="Helvetica,sans-Serif" font-size="10.00">filelist_type</text>
</a>
</g>
</g>
<!-- Node2 -->
<g id="node2" class="node">
<title>Node2</title>
<g id="a_node2"><a xlink:title=" ">
<polygon fill="white" stroke="#bfbfbf" points="0,-67.5 0,-97.5 141,-97.5 141,-67.5 0,-67.5"/>
<text text-anchor="start" x="8" y="-85.5" font-family="Helvetica,sans-Serif" font-size="10.00">character(len=255),</text>
<text text-anchor="middle" x="70.5" y="-74.5" font-family="Helvetica,sans-Serif" font-size="10.00"> dimension(:), allocatable</text>
</a>
</g>
</g>
<!-- Node2&#45;&gt;Node1 -->
<g id="edge1" class="edge">
<title>Node2&#45;&gt;Node1</title>
<path fill="none" stroke="#9a32cd" stroke-dasharray="5,2" d="M93.7,-60.44C102.65,-52.86 113.21,-44.57 123.5,-38 134.69,-30.86 148.05,-24.34 158.92,-19.51"/>
<polygon fill="#9a32cd" stroke="#9a32cd" points="91.24,-57.93 85.98,-67.13 95.83,-63.22 91.24,-57.93"/>
<text text-anchor="middle" x="149.5" y="-41" font-family="Helvetica,sans-Serif" font-size="10.00"> file_name</text>
</g>
<!-- Node3 -->
<g id="node3" class="node">
<title>Node3</title>
<g id="a_node3"><a xlink:title=" ">
<polygon fill="white" stroke="#bfbfbf" points="159,-73 159,-92 200,-92 200,-73 159,-73"/>
<text text-anchor="middle" x="179.5" y="-80" font-family="Helvetica,sans-Serif" font-size="10.00">c_ptr</text>
</a>
</g>
</g>
<!-- Node3&#45;&gt;Node1 -->
<g id="edge2" class="edge">
<title>Node3&#45;&gt;Node1</title>
<path fill="none" stroke="#9a32cd" stroke-dasharray="5,2" d="M179.5,-62.44C179.5,-48.53 179.5,-30.32 179.5,-19.72"/>
<polygon fill="#9a32cd" stroke="#9a32cd" points="176,-62.86 179.5,-72.86 183,-62.86 176,-62.86"/>
<text text-anchor="middle" x="208.5" y="-41" font-family="Helvetica,sans-Serif" font-size="10.00"> file_pointer</text>
</g>
<!-- Node4 -->
<g id="node4" class="node">
<title>Node4</title>
<g id="a_node4"><a xlink:title=" ">
<polygon fill="white" stroke="#bfbfbf" points="235,-73 235,-92 286,-92 286,-73 235,-73"/>
<text text-anchor="middle" x="260.5" y="-80" font-family="Helvetica,sans-Serif" font-size="10.00">integer</text>
</a>
</g>
</g>
<!-- Node4&#45;&gt;Node1 -->
<g id="edge3" class="edge">
<title>Node4&#45;&gt;Node1</title>
<path fill="none" stroke="#9a32cd" stroke-dasharray="5,2" d="M254.49,-63.24C250.94,-54.71 245.7,-44.92 238.5,-38 229.97,-29.8 218.52,-23.79 207.97,-19.54"/>
<polygon fill="#9a32cd" stroke="#9a32cd" points="251.26,-64.6 258.01,-72.76 257.82,-62.17 251.26,-64.6"/>
<text text-anchor="middle" x="289" y="-41" font-family="Helvetica,sans-Serif" font-size="10.00"> diag_file_indices</text>
</g>
</g>
</svg>
