<?xml version="1.0" encoding="UTF-8" standalone="no"?>
<!DOCTYPE svg PUBLIC "-//W3C//DTD SVG 1.1//EN"
 "http://www.w3.org/Graphics/SVG/1.1/DTD/svg11.dtd">
<!-- Generated by graphviz version 2.43.0 (0)
 -->
<!-- Title: fmsdiagdiurnalaxis_type Pages: 1 -->
<svg width="529pt" height="177pt"
 viewBox="0.00 0.00 529.00 176.50" xmlns="http://www.w3.org/2000/svg" xmlns:xlink="http://www.w3.org/1999/xlink">
<g id="graph0" class="graph" transform="scale(1 1) rotate(0) translate(4 172.5)">
<title>fmsdiagdiurnalaxis_type</title>
<polygon fill="white" stroke="transparent" points="-4,4 -4,-172.5 525,-172.5 525,4 -4,4"/>
<!-- Node1 -->
<g id="node1" class="node">
<title>Node1</title>
<g id="a_node1"><a xlink:title="Type to hold the diurnal axis.">
<polygon fill="#bfbfbf" stroke="black" points="384,-84 384,-103 521,-103 521,-84 384,-84"/>
<text text-anchor="middle" x="452.5" y="-91" font-family="Helvetica,sans-Serif" font-size="10.00">fmsdiagdiurnalaxis_type</text>
</a>
</g>
</g>
<!-- Node2 -->
<g id="node2" class="node">
<title>Node2</title>
<g id="a_node2"><a xlink:href="structfms__diag__axis__object__mod_1_1fmsdiagaxis__type.html" target="_top" xlink:title="Type to hold the diagnostic axis description.">
<polygon fill="white" stroke="black" points="152.5,-106 152.5,-125 256.5,-125 256.5,-106 152.5,-106"/>
<text text-anchor="middle" x="204.5" y="-113" font-family="Helvetica,sans-Serif" font-size="10.00">fmsdiagaxis_type</text>
</a>
</g>
</g>
<!-- Node2&#45;&gt;Node1 -->
<g id="edge1" class="edge">
<title>Node2&#45;&gt;Node1</title>
<path fill="none" stroke="midnightblue" d="M266.91,-115.33C296.87,-114.7 333.4,-113.14 366,-109.5 379.51,-107.99 394.08,-105.57 407.31,-103.06"/>
<polygon fill="midnightblue" stroke="midnightblue" points="266.54,-111.83 256.6,-115.51 266.66,-118.83 266.54,-111.83"/>
</g>
<!-- Node3 -->
<g id="node3" class="node">
<title>Node3</title>
<g id="a_node3"><a xlink:title=" ">
<polygon fill="white" stroke="#bfbfbf" points="0,-129 0,-148 51,-148 51,-129 0,-129"/>
<text text-anchor="middle" x="25.5" y="-136" font-family="Helvetica,sans-Serif" font-size="10.00">integer</text>
</a>
</g>
</g>
<!-- Node3&#45;&gt;Node1 -->
<g id="edge5" class="edge">
<title>Node3&#45;&gt;Node1</title>
<path fill="none" stroke="#9a32cd" stroke-dasharray="5,2" d="M61.17,-146.46C63.81,-146.88 66.44,-147.23 69,-147.5 85.8,-149.26 90.12,-148.12 107,-147.5 222.45,-143.27 253.62,-152.26 366,-125.5 388.67,-120.1 413.49,-110.35 430.53,-103.03"/>
<polygon fill="#9a32cd" stroke="#9a32cd" points="61.55,-142.97 51.08,-144.61 60.29,-149.86 61.55,-142.97"/>
<text text-anchor="middle" x="204.5" y="-160.5" font-family="Helvetica,sans-Serif" font-size="10.00"> edges_id</text>
<text text-anchor="middle" x="204.5" y="-149.5" font-family="Helvetica,sans-Serif" font-size="10.00">ndiurnal_samples</text>
</g>
<!-- Node3&#45;&gt;Node2 -->
<g id="edge2" class="edge">
<title>Node3&#45;&gt;Node2</title>
<path fill="none" stroke="#9a32cd" stroke-dasharray="5,2" d="M61.22,-133.99C87.14,-130.62 122.98,-125.96 152.2,-122.17"/>
<polygon fill="#9a32cd" stroke="#9a32cd" points="60.58,-130.54 51.11,-135.3 61.48,-137.48 60.58,-130.54"/>
<text text-anchor="middle" x="88" y="-135.5" font-family="Helvetica,sans-Serif" font-size="10.00"> axis_id</text>
</g>
<!-- Node4 -->
<g id="node4" class="node">
<title>Node4</title>
<g id="a_node4"><a xlink:title=" ">
<polygon fill="white" stroke="#bfbfbf" points="125,-49.5 125,-79.5 284,-79.5 284,-49.5 125,-49.5"/>
<text text-anchor="start" x="133" y="-67.5" font-family="Helvetica,sans-Serif" font-size="10.00">character(len=:), allocatable,</text>
<text text-anchor="middle" x="204.5" y="-56.5" font-family="Helvetica,sans-Serif" font-size="10.00"> private</text>
</a>
</g>
</g>
<!-- Node4&#45;&gt;Node1 -->
<g id="edge3" class="edge">
<title>Node4&#45;&gt;Node1</title>
<path fill="none" stroke="#9a32cd" stroke-dasharray="5,2" d="M294.62,-56.61C317.99,-56.23 343.07,-57.35 366,-61.5 389.55,-65.76 415.06,-76.13 432.03,-83.92"/>
<polygon fill="#9a32cd" stroke="#9a32cd" points="294.27,-53.11 284.36,-56.86 294.45,-60.11 294.27,-53.11"/>
<text text-anchor="middle" x="334" y="-97.5" font-family="Helvetica,sans-Serif" font-size="10.00"> axis_name</text>
<text text-anchor="middle" x="334" y="-86.5" font-family="Helvetica,sans-Serif" font-size="10.00">edges_name</text>
<text text-anchor="middle" x="334" y="-75.5" font-family="Helvetica,sans-Serif" font-size="10.00">long_name</text>
<text text-anchor="middle" x="334" y="-64.5" font-family="Helvetica,sans-Serif" font-size="10.00">units</text>
</g>
<!-- Node5 -->
<g id="node5" class="node">
<title>Node5</title>
<g id="a_node5"><a xlink:title=" ">
<polygon fill="white" stroke="#bfbfbf" points="140.5,-0.5 140.5,-30.5 268.5,-30.5 268.5,-0.5 140.5,-0.5"/>
<text text-anchor="start" x="148.5" y="-18.5" font-family="Helvetica,sans-Serif" font-size="10.00">class(*), dimension</text>
<text text-anchor="middle" x="204.5" y="-7.5" font-family="Helvetica,sans-Serif" font-size="10.00">(:), allocatable, private</text>
</a>
</g>
</g>
<!-- Node5&#45;&gt;Node1 -->
<g id="edge4" class="edge">
<title>Node5&#45;&gt;Node1</title>
<path fill="none" stroke="#9a32cd" stroke-dasharray="5,2" d="M278.76,-21.34C306.68,-25.12 338.4,-31.32 366,-41.5 394.2,-51.91 423.33,-71.99 439.26,-83.93"/>
<polygon fill="#9a32cd" stroke="#9a32cd" points="279.03,-17.85 268.67,-20.06 278.14,-24.79 279.03,-17.85"/>
<text text-anchor="middle" x="334" y="-44.5" font-family="Helvetica,sans-Serif" font-size="10.00"> diurnal_data</text>
</g>
</g>
</svg>
