<?xml version="1.0" encoding="UTF-8" standalone="no"?>
<!DOCTYPE svg PUBLIC "-//W3C//DTD SVG 1.1//EN"
 "http://www.w3.org/Graphics/SVG/1.1/DTD/svg11.dtd">
<!-- Generated by graphviz version 2.43.0 (0)
 -->
<!-- Title: diagyamlfilesvar_type Pages: 1 -->
<svg width="400pt" height="212pt"
 viewBox="0.00 0.00 400.00 212.00" xmlns="http://www.w3.org/2000/svg" xmlns:xlink="http://www.w3.org/1999/xlink">
<g id="graph0" class="graph" transform="scale(1 1) rotate(0) translate(4 208)">
<title>diagyamlfilesvar_type</title>
<polygon fill="white" stroke="transparent" points="-4,4 -4,-208 396,-208 396,4 -4,4"/>
<!-- Node1 -->
<g id="node1" class="node">
<title>Node1</title>
<g id="a_node1"><a xlink:title="type to hold the info a diag_field">
<polygon fill="#bfbfbf" stroke="black" points="267,-84.5 267,-103.5 392,-103.5 392,-84.5 267,-84.5"/>
<text text-anchor="middle" x="329.5" y="-91.5" font-family="Helvetica,sans-Serif" font-size="10.00">diagyamlfilesvar_type</text>
</a>
</g>
</g>
<!-- Node2 -->
<g id="node2" class="node">
<title>Node2</title>
<g id="a_node2"><a xlink:title=" ">
<polygon fill="white" stroke="#bfbfbf" points="0,-145 0,-175 159,-175 159,-145 0,-145"/>
<text text-anchor="start" x="8" y="-163" font-family="Helvetica,sans-Serif" font-size="10.00">character(len=:), allocatable,</text>
<text text-anchor="middle" x="79.5" y="-152" font-family="Helvetica,sans-Serif" font-size="10.00"> private</text>
</a>
</g>
</g>
<!-- Node2&#45;&gt;Node1 -->
<g id="edge1" class="edge">
<title>Node2&#45;&gt;Node1</title>
<path fill="none" stroke="#9a32cd" stroke-dasharray="5,2" d="M162.65,-142.71C190.25,-136.45 221.09,-128.95 249,-121 267.08,-115.85 287.13,-109.03 302.57,-103.54"/>
<polygon fill="#9a32cd" stroke="#9a32cd" points="161.64,-139.36 152.65,-144.96 163.17,-146.19 161.64,-139.36"/>
<text text-anchor="middle" x="213" y="-196" font-family="Helvetica,sans-Serif" font-size="10.00"> var_fname</text>
<text text-anchor="middle" x="213" y="-185" font-family="Helvetica,sans-Serif" font-size="10.00">var_longname</text>
<text text-anchor="middle" x="213" y="-174" font-family="Helvetica,sans-Serif" font-size="10.00">var_module</text>
<text text-anchor="middle" x="213" y="-163" font-family="Helvetica,sans-Serif" font-size="10.00">var_outname</text>
<text text-anchor="middle" x="213" y="-152" font-family="Helvetica,sans-Serif" font-size="10.00">var_units</text>
<text text-anchor="middle" x="213" y="-141" font-family="Helvetica,sans-Serif" font-size="10.00">var_varname</text>
</g>
<!-- Node3 -->
<g id="node3" class="node">
<title>Node3</title>
<g id="a_node3"><a xlink:title=" ">
<polygon fill="white" stroke="#bfbfbf" points="3,-106.5 3,-125.5 156,-125.5 156,-106.5 3,-106.5"/>
<text text-anchor="middle" x="79.5" y="-113.5" font-family="Helvetica,sans-Serif" font-size="10.00">character(len=max_str_len)</text>
</a>
</g>
</g>
<!-- Node3&#45;&gt;Node1 -->
<g id="edge2" class="edge">
<title>Node3&#45;&gt;Node1</title>
<path fill="none" stroke="#9a32cd" stroke-dasharray="5,2" d="M166.38,-108.38C199.47,-105.45 236.57,-102.15 266.92,-99.46"/>
<polygon fill="#9a32cd" stroke="#9a32cd" points="165.91,-104.91 156.26,-109.28 166.53,-111.88 165.91,-104.91"/>
<text text-anchor="middle" x="213" y="-109" font-family="Helvetica,sans-Serif" font-size="10.00"> var_attributes</text>
</g>
<!-- Node4 -->
<g id="node4" class="node">
<title>Node4</title>
<g id="a_node4"><a xlink:title=" ">
<polygon fill="white" stroke="#bfbfbf" points="17,-57 17,-87 142,-87 142,-57 17,-57"/>
<text text-anchor="start" x="25" y="-75" font-family="Helvetica,sans-Serif" font-size="10.00">real(kind=r4_kind),</text>
<text text-anchor="middle" x="79.5" y="-64" font-family="Helvetica,sans-Serif" font-size="10.00"> dimension(2), private</text>
</a>
</g>
</g>
<!-- Node4&#45;&gt;Node1 -->
<g id="edge3" class="edge">
<title>Node4&#45;&gt;Node1</title>
<path fill="none" stroke="#9a32cd" stroke-dasharray="5,2" d="M152.48,-77.7C182.35,-80.14 217.36,-83.09 249,-86 254.8,-86.53 260.84,-87.11 266.88,-87.69"/>
<polygon fill="#9a32cd" stroke="#9a32cd" points="152.4,-74.19 142.15,-76.86 151.83,-81.16 152.4,-74.19"/>
<text text-anchor="middle" x="213" y="-89" font-family="Helvetica,sans-Serif" font-size="10.00"> var_zbounds</text>
</g>
<!-- Node5 -->
<g id="node5" class="node">
<title>Node5</title>
<g id="a_node5"><a xlink:title=" ">
<polygon fill="white" stroke="#bfbfbf" points="54,-0.5 54,-19.5 105,-19.5 105,-0.5 54,-0.5"/>
<text text-anchor="middle" x="79.5" y="-7.5" font-family="Helvetica,sans-Serif" font-size="10.00">integer</text>
</a>
</g>
</g>
<!-- Node5&#45;&gt;Node1 -->
<g id="edge4" class="edge">
<title>Node5&#45;&gt;Node1</title>
<path fill="none" stroke="#9a32cd" stroke-dasharray="5,2" d="M115.49,-8.95C150.59,-9.12 205.51,-12.77 249,-31 278.56,-43.39 306.27,-70.01 319.82,-84.36"/>
<polygon fill="#9a32cd" stroke="#9a32cd" points="115.26,-5.45 105.27,-9 115.29,-12.45 115.26,-5.45"/>
<text text-anchor="middle" x="213" y="-67" font-family="Helvetica,sans-Serif" font-size="10.00"> n_diurnal</text>
<text text-anchor="middle" x="213" y="-56" font-family="Helvetica,sans-Serif" font-size="10.00">pow_value</text>
<text text-anchor="middle" x="213" y="-45" font-family="Helvetica,sans-Serif" font-size="10.00">var_kind</text>
<text text-anchor="middle" x="213" y="-34" font-family="Helvetica,sans-Serif" font-size="10.00">var_reduction</text>
</g>
</g>
</svg>
