<?xml version="1.0" encoding="UTF-8" standalone="no"?>
<!DOCTYPE svg PUBLIC "-//W3C//DTD SVG 1.1//EN"
 "http://www.w3.org/Graphics/SVG/1.1/DTD/svg11.dtd">
<!-- Generated by graphviz version 2.43.0 (0)
 -->
<!-- Title: fmsdllistnode_t Pages: 1 -->
<svg width="145pt" height="97pt"
 viewBox="0.00 0.00 144.50 97.00" xmlns="http://www.w3.org/2000/svg" xmlns:xlink="http://www.w3.org/1999/xlink">
<g id="graph0" class="graph" transform="scale(1 1) rotate(0) translate(4 93)">
<title>fmsdllistnode_t</title>
<polygon fill="white" stroke="transparent" points="-4,4 -4,-93 140.5,-93 140.5,4 -4,4"/>
<!-- Node1 -->
<g id="node1" class="node">
<title>Node1</title>
<g id="a_node1"><a xlink:title="The doubly&#45;linked list node type.">
<polygon fill="#bfbfbf" stroke="black" points="1.5,-1.5 1.5,-20.5 93.5,-20.5 93.5,-1.5 1.5,-1.5"/>
<text text-anchor="middle" x="47.5" y="-8.5" font-family="Helvetica,sans-Serif" font-size="10.00">fmsdllistnode_t</text>
</a>
</g>
</g>
<!-- Node1&#45;&gt;Node1 -->
<g id="edge2" class="edge">
<title>Node1&#45;&gt;Node1</title>
<path fill="none" stroke="#9a32cd" stroke-dasharray="5,2" d="M103.77,-15.95C108.53,-14.89 111.5,-13.24 111.5,-11 111.5,-7.41 103.91,-5.34 93.52,-4.78"/>
<polygon fill="#9a32cd" stroke="#9a32cd" points="103.02,-12.52 93.52,-17.22 103.88,-19.46 103.02,-12.52"/>
<text text-anchor="middle" x="124" y="-14" font-family="Helvetica,sans-Serif" font-size="10.00"> next</text>
<text text-anchor="middle" x="124" y="-3" font-family="Helvetica,sans-Serif" font-size="10.00">prev</text>
</g>
<!-- Node2 -->
<g id="node2" class="node">
<title>Node2</title>
<g id="a_node2"><a xlink:title=" ">
<polygon fill="white" stroke="#bfbfbf" points="0,-69.5 0,-88.5 95,-88.5 95,-69.5 0,-69.5"/>
<text text-anchor="middle" x="47.5" y="-76.5" font-family="Helvetica,sans-Serif" font-size="10.00">class(*), pointer</text>
</a>
</g>
</g>
<!-- Node2&#45;&gt;Node1 -->
<g id="edge1" class="edge">
<title>Node2&#45;&gt;Node1</title>
<path fill="none" stroke="#9a32cd" stroke-dasharray="5,2" d="M47.5,-59.04C47.5,-46.47 47.5,-30.56 47.5,-20.84"/>
<polygon fill="#9a32cd" stroke="#9a32cd" points="44,-59.37 47.5,-69.37 51,-59.37 44,-59.37"/>
<text text-anchor="middle" x="69.5" y="-43" font-family="Helvetica,sans-Serif" font-size="10.00"> data_ptr</text>
</g>
</g>
</svg>
